<?xml version="1.0" encoding="UTF-8"?> <svg xmlns="http://www.w3.org/2000/svg" fill="none" viewBox="0 0 193 88"><g clip-path="url(#a)"><path fill="#E84234" d="M191.35 56.58H75.45v15.71h115.9V56.58Z"></path><mask id="b" width="193" height="88" x="0" y="0" maskUnits="userSpaceOnUse" style="mask-type:luminance"><path fill="#fff" d="M192.54 0H0v88h192.54V0Z"></path></mask><g mask="url(#b)"><path fill="#5A2B2A" d="M57.15 81.51c.13.07.18.24.1.37a21.34 21.34 0 0 1-8.14 3.85A67 67 0 0 1 32.78 88c-3.6.01-7.2-.28-10.75-.86a.26.26 0 0 1-.21-.31.25.25 0 0 1 .12-.18c1.18-.78 2.29-1.56 3.36-2.33 8.94-6.4 19.73-7.9 30.1-3.63.6.25 1.18.53 1.76.83Z"></path></g><mask id="c" width="193" height="88" x="0" y="0" maskUnits="userSpaceOnUse" style="mask-type:luminance"><path fill="#fff" d="M192.54 0H0v88h192.54V0Z"></path></mask><g mask="url(#c)"><path fill="#953933" d="M60.05 78.9c-.2.28-.4.57-.62.84a.45.45 0 0 1-.61.08c-.68-.46-1.39-.88-2.11-1.26-9.95-5.18-20.83-4.62-30.3.96-3.4 2-7.08 4.17-12.27 5.41l-.29-.02a16.7 16.7 0 0 1-8.54-7.54.46.46 0 0 1 .48-.68c10.71 1.68 17-.87 22.58-3.12 10.19-4.12 21.03-3.07 30.1 3.52.52.38 1.02.78 1.5 1.2.18.16.2.41.08.6"></path></g><mask id="d" width="193" height="88" x="0" y="0" maskUnits="userSpaceOnUse" style="mask-type:luminance"><path fill="#fff" d="M192.54 0H0v88h192.54V0Z"></path></mask><g mask="url(#d)"><path fill="#E84234" d="M61.7 75.2c-.08.34-.19.7-.31 1.04a.47.47 0 0 1-.78.16 20.46 20.46 0 0 0-1.84-1.64c-8.79-6.97-19.58-8.48-29.93-4.79-5.83 2.08-12.43 4.44-23.64 1.99-.7-.16-1.38-.32-2.04-.5a.48.48 0 0 1-.34-.33 59.16 59.16 0 0 1-1.53-8.27.47.47 0 0 1 .66-.5c1.5.68 3.02 1.26 4.57 1.77 10.9 3.58 17.71 1.91 23.72.45 10.68-2.62 21.25-.01 29.3 7.81a20.6 20.6 0 0 1 2.1 2.4c.08.12.11.26.07.4"></path></g><mask id="e" width="193" height="88" x="0" y="0" maskUnits="userSpaceOnUse" style="mask-type:luminance"><path fill="#fff" d="M192.54 0H0v88h192.54V0Z"></path></mask><g mask="url(#e)"><path fill="#F0856B" d="M62.11 72.53c0 .23-.2.42-.44.4a.43.43 0 0 1-.34-.18c-.49-.67-1-1.3-1.57-1.9-7.66-8.19-18.1-11.28-28.89-9.17-6.07 1.2-12.95 2.54-23.67-1.54a44.6 44.6 0 0 1-6.35-2.98.43.43 0 0 1-.22-.34c-.22-2.5-.38-5-.49-7.5a.43.43 0 0 1 .7-.36 42.42 42.42 0 0 0 7.59 4.51c10.38 4.88 17.34 4.05 23.48 3.32 10.92-1.29 21.1 2.58 28.12 11.33a20.39 20.39 0 0 1 2.04 3.08c.04.06.05.13.06.2 0 .38 0 .76-.02 1.13"></path></g><mask id="f" width="193" height="88" x="0" y="0" maskUnits="userSpaceOnUse" style="mask-type:luminance"><path fill="#fff" d="M192.54 0H0v88h192.54V0Z"></path></mask><g mask="url(#f)"><path fill="#F7B49E" d="M62.03 70.07c0 .03-.04.05-.06.02a20.28 20.28 0 0 0-1.88-3.05c-6.73-8.97-16.78-13.18-27.73-12.25-6.16.53-13.14 1.12-23.36-4.1a41.06 41.06 0 0 1-8.59-5.73 1.2 1.2 0 0 1-.4-.9 150.34 150.34 0 0 1 .08-6.4c0-.34.03-.86.07-1.65a.46.46 0 0 1 .8-.29c2.8 3.2 6.14 5.89 9.86 7.95 9.52 5.5 16.23 5.27 22.16 5.06 10.52-.36 19.94 4.17 25.94 13.08a18.67 18.67 0 0 1 3.1 8.26"></path></g><mask id="g" width="193" height="88" x="0" y="0" maskUnits="userSpaceOnUse" style="mask-type:luminance"><path fill="#fff" d="M192.54 0H0v88h192.54V0Z"></path></mask><g mask="url(#g)"><path fill="#024049" d="M63.91 47.2c-.01 1.04-.03 2.08-.07 3.12l-.07 1.66a.46.46 0 0 1-.81.29 37.02 37.02 0 0 0-9.85-7.95c-.9-.52-1.77-.98-2.61-1.4a34.29 34.29 0 0 0-17-3.74l-2.55.07c-10.53.36-19.94-4.16-25.94-13.08-.44-.65-.84-1.32-1.2-2.02-2.2-4.31-2.84-9.51-.68-13.78 2.26-4.46 7-6.95 11.68-8.12A67.07 67.07 0 0 1 31.15 0c6.14 0 13.07.77 18.82 3.03C60.37 7.12 61.94 18.4 63 28.18a158.57 158.57 0 0 1 .91 19.01Z"></path></g><mask id="h" width="193" height="88" x="0" y="0" maskUnits="userSpaceOnUse" style="mask-type:luminance"><path fill="#fff" d="M192.54 0H0v88h192.54V0Z"></path></mask><g mask="url(#h)"><path fill="#fff" d="M50.26 9.69a.24.24 0 0 0-.2.1c-1.37 2.12-3.47 4.27-7.16 6.32-3.48 1.94-7.86.2-9.08-.36a.23.23 0 0 0-.3.11.24.24 0 0 0-.02.1v23.22c4.73-.07 10.1.31 17 3.74v-33c0-.13-.11-.23-.24-.23Zm-3.85 14.48c0-.09.06-.16.15-.16h2.54c.09 0 .16.07.16.16v.71c.01.75-.54 1.4-1.3 1.5a1.44 1.44 0 0 1-1.55-1.42v-.79Zm-1.42-2.74.01.8c0 .8-.64 1.43-1.43 1.43h-.13c-.75-.1-1.3-.75-1.29-1.5v-.72c0-.09.08-.16.16-.16h2.52c.1 0 .16.07.16.15Zm-9.55 0c0-.08.07-.15.16-.15l2.54.01c.09 0 .16.07.16.16v.7c.02.76-.54 1.4-1.3 1.5-.78.07-1.48-.5-1.55-1.29v-.93ZM38.92 27c.09 0 .16.07.16.16v.7c.01.76-.54 1.4-1.3 1.5-.78.07-1.48-.5-1.55-1.29v-.92c0-.08.06-.15.15-.15h2.54Zm-3.47 6.62v-.91c0-.08.06-.15.15-.15h2.55c.08 0 .15.07.15.15v.71c.02.75-.54 1.4-1.29 1.5-.8.07-1.49-.52-1.56-1.3Zm2.75 4.13a1.43 1.43 0 0 1-1.57-1.42v-.79c0-.08.07-.15.16-.15h2.53c.1 0 .16.07.16.15v.71c.02.76-.53 1.4-1.28 1.5Zm3.15-7.09c0 .8-.65 1.43-1.45 1.43h-.12c-.75-.1-1.3-.75-1.29-1.5v-.7c0-.1.07-.16.16-.16h2.54c.09 0 .16.07.16.15v.78Zm0-5.7c0 .79-.65 1.43-1.45 1.42h-.12c-.75-.1-1.3-.75-1.29-1.5v-.71c0-.09.07-.16.16-.16h2.55c.08 0 .14.07.15.16v.78Zm.2-5.77v-.72c0-.08.06-.15.15-.15l2.54.01c.09 0 .16.07.16.15v.8c0 .79-.65 1.42-1.44 1.42h-.13c-.74-.1-1.3-.75-1.29-1.5Zm.6 8.67v-.7c0-.1.07-.16.15-.16h2.55c.09 0 .15.07.15.15v.8a1.43 1.43 0 0 1-1.56 1.41c-.75-.1-1.3-.74-1.29-1.5Zm3.55 8.47c0 .8-.65 1.43-1.45 1.43h-.12c-.75-.1-1.3-.75-1.3-1.5v-.71c0-.09.08-.15.16-.16h2.55c.08 0 .15.08.15.16v.78Zm0-2.83c0 .79-.65 1.43-1.45 1.43l-.12-.01c-.75-.1-1.3-.74-1.3-1.5l.01-.72c0-.09.08-.15.16-.15h2.54c.08.01.15.08.15.17v.78Zm-.41-2.72v-.92c0-.08.07-.15.16-.15h2.52c.09 0 .16.07.16.15v.73c.02.75-.53 1.4-1.29 1.5a1.44 1.44 0 0 1-1.55-1.3Zm3.07 9.8h-.13c-.75-.1-1.3-.74-1.29-1.5v-.7c0-.09.07-.16.16-.16l2.53-.01c.09 0 .16.07.16.16v.8c0 .79-.65 1.43-1.44 1.42Z"></path></g><mask id="i" width="193" height="88" x="0" y="0" maskUnits="userSpaceOnUse" style="mask-type:luminance"><path fill="#fff" d="M192.54 0H0v88h192.54V0Z"></path></mask><g mask="url(#i)"><path fill="#024049" d="m76.85 48.7 1.43-2.53c.25-.32.7-.4 1.03-.19.12.07 2.31 1.68 4.32 1.68 1.22 0 2.1-.76 2.1-1.82 0-1.28-1.07-2.25-3.14-3.08-2.61-1.03-5.9-3.07-5.9-6.72 0-3 2.35-6.05 7.03-6.05 2.35.07 4.63.87 6.5 2.28.3.24.37.65.2.98l-1.56 2.34c-.21.33-.76.6-1.03.4-.28-.16-2.5-1.83-4.35-1.83-.95-.09-1.8.6-1.91 1.55 0 1.13.9 1.98 3.3 2.95 2.38.94 6.15 2.8 6.15 6.93 0 3.13-2.7 6.3-7.17 6.3-3.95 0-6.15-1.65-6.84-2.35-.3-.3-.4-.42-.15-.85"></path></g><mask id="j" width="193" height="88" x="0" y="0" maskUnits="userSpaceOnUse" style="mask-type:luminance"><path fill="#fff" d="M192.54 0H0v88h192.54V0Z"></path></mask><g mask="url(#j)"><path fill="#024049" d="M94.42 30.87a.6.6 0 0 1 .58-.58h3.74c.32 0 .58.26.58.58v12.32a3.77 3.77 0 0 0 7.54.1V30.87c0-.32.25-.58.57-.58h3.74a.6.6 0 0 1 .58.58v12.56a8.67 8.67 0 0 1-17.33 0V30.87Z"></path></g><mask id="k" width="193" height="88" x="0" y="0" maskUnits="userSpaceOnUse" style="mask-type:luminance"><path fill="#fff" d="M192.54 0H0v88h192.54V0Z"></path></mask><g mask="url(#k)"><path fill="#024049" d="M118.75 30.48a.58.58 0 0 1 .55-.49h.48c.21.02.4.13.52.3l7.06 13.14h.06l7.05-13.13c.12-.18.3-.3.52-.3h.48c.28 0 .5.2.55.48l3.44 20.43c.06.3-.14.6-.44.66-.05 0-.1.01-.14 0h-3.59a.62.62 0 0 1-.58-.48l-1.37-9.4h-.06l-5.1 9.86c-.12.18-.3.3-.52.33h-.55a.66.66 0 0 1-.52-.33l-5.13-9.85h-.06l-1.34 9.4a.59.59 0 0 1-.58.48h-3.59a.56.56 0 0 1-.58-.67l3.44-20.43Z"></path></g><mask id="l" width="193" height="88" x="0" y="0" maskUnits="userSpaceOnUse" style="mask-type:luminance"><path fill="#fff" d="M192.54 0H0v88h192.54V0Z"></path></mask><g mask="url(#l)"><path fill="#024049" d="M145.44 30.48a.58.58 0 0 1 .55-.49h.49c.2.02.4.13.52.3l7.05 13.14h.06l7.05-13.13c.12-.18.31-.3.52-.3h.49c.27 0 .5.2.55.48l3.43 20.43a.56.56 0 0 1-.58.67H162a.62.62 0 0 1-.58-.49l-1.37-9.4h-.06l-5.11 9.86c-.11.18-.3.3-.52.33h-.54a.66.66 0 0 1-.52-.33l-5.14-9.85h-.06l-1.34 9.4a.6.6 0 0 1-.57.48h-3.6a.56.56 0 0 1-.57-.67l3.44-20.43Z"></path></g><mask id="m" width="193" height="88" x="0" y="0" maskUnits="userSpaceOnUse" style="mask-type:luminance"><path fill="#fff" d="M192.54 0H0v88h192.54V0Z"></path></mask><g mask="url(#m)"><path fill="#024049" d="M171.14 30.3h2.6c.61 0 1.1.49 1.1 1.1v19.08c0 .6-.49 1.1-1.1 1.1h-2.6c-.6 0-1.1-.5-1.1-1.1V31.4c0-.61.5-1.1 1.1-1.1Z"></path></g><mask id="n" width="193" height="88" x="0" y="0" maskUnits="userSpaceOnUse" style="mask-type:luminance"><path fill="#fff" d="M192.54 0H0v88h192.54V0Z"></path></mask><g mask="url(#n)"><path fill="#024049" d="M182.81 34.76h-4.34a.58.58 0 0 1-.58-.57v-3.32c0-.32.25-.57.57-.57h13.5c.32 0 .58.25.58.57v3.32c0 .32-.26.57-.58.57h-4.35V51a.6.6 0 0 1-.58.58h-3.64a.6.6 0 0 1-.58-.58V34.76Z"></path></g><mask id="o" width="193" height="88" x="0" y="0" maskUnits="userSpaceOnUse" style="mask-type:luminance"><path fill="#fff" d="M192.54 0H0v88h192.54V0Z"></path></mask><g mask="url(#o)"><path fill="#024049" d="M76.79 15.98a.3.3 0 0 1 .29-.29h1.01a.3.3 0 0 1 .3.3v6.27a2.54 2.54 0 1 0 5.07.03v-6.3c0-.17.13-.3.29-.3h1.01a.3.3 0 0 1 .3.3v6.38a4.13 4.13 0 0 1-8.28 0v-6.39Z"></path></g><mask id="p" width="193" height="88" x="0" y="0" maskUnits="userSpaceOnUse" style="mask-type:luminance"><path fill="#fff" d="M192.54 0H0v88h192.54V0Z"></path></mask><g mask="url(#p)"><path fill="#024049" d="M89.94 15.7h.48c.3 0 .55.24.55.54v9.54c0 .3-.24.55-.55.55h-.48a.55.55 0 0 1-.55-.55v-9.54c0-.3.25-.55.55-.55Z"></path></g><mask id="q" width="193" height="88" x="0" y="0" maskUnits="userSpaceOnUse" style="mask-type:luminance"><path fill="#fff" d="M192.54 0H0v88h192.54V0Z"></path></mask><g mask="url(#q)"><path fill="#024049" d="M96.9 17.12h-2.48a.29.29 0 0 1-.29-.29v-.85c0-.16.13-.29.3-.29h6.53c.16 0 .29.13.29.3v.84c0 .16-.13.3-.3.3h-2.47v8.92a.3.3 0 0 1-.29.28h-1a.3.3 0 0 1-.29-.28v-8.93Z"></path></g><mask id="r" width="193" height="88" x="0" y="0" maskUnits="userSpaceOnUse" style="mask-type:luminance"><path fill="#fff" d="M192.54 0H0v88h192.54V0Z"></path></mask><g mask="url(#r)"><path fill="#024049" d="M104.41 15.98c0-.16.13-.29.29-.29h3.47a3.4 3.4 0 0 1 .1 6.78h-2.29v3.57a.3.3 0 0 1-.3.3h-.98a.29.29 0 0 1-.29-.3V15.98Zm3.67 5c1.07 0 1.93-.87 1.93-1.94a1.87 1.87 0 0 0-1.93-1.83h-2.1v3.77h2.1Z"></path></g><mask id="s" width="193" height="88" x="0" y="0" maskUnits="userSpaceOnUse" style="mask-type:luminance"><path fill="#fff" d="M192.54 0H0v88h192.54V0Z"></path></mask><g mask="url(#s)"><path fill="#fff" d="M82.07 60.66c0-.11.1-.21.22-.21h1.04c.13 0 .22.1.22.21v2.99h3.67v-2.99c0-.11.1-.21.22-.21h1.03c.12 0 .22.1.22.21v7.47c0 .1-.1.2-.22.2h-1.03a.21.21 0 0 1-.22-.2V65h-3.67v3.12c0 .1-.1.2-.22.2H82.3a.22.22 0 0 1-.22-.2v-7.47Z"></path></g><mask id="t" width="193" height="88" x="0" y="0" maskUnits="userSpaceOnUse" style="mask-type:luminance"><path fill="#fff" d="M192.54 0H0v88h192.54V0Z"></path></mask><g mask="url(#t)"><path fill="#fff" d="m90.84 68.05 3.51-7.59c.04-.07.1-.13.2-.13h.1c.12 0 .17.06.2.13l3.47 7.59c.07.14-.02.3-.19.3h-.98c-.17 0-.25-.08-.33-.23l-.55-1.22H92.9l-.55 1.22a.34.34 0 0 1-.33.22h-.98c-.17 0-.26-.15-.2-.3Zm4.88-2.4-1.13-2.48h-.04l-1.1 2.48h2.27Z"></path></g><mask id="u" width="193" height="88" x="0" y="0" maskUnits="userSpaceOnUse" style="mask-type:luminance"><path fill="#fff" d="M192.54 0H0v88h192.54V0Z"></path></mask><g mask="url(#u)"><path fill="#fff" d="M101.3 60.5c.01-.09.08-.17.2-.17h.18c.1 0 .16.05.2.12l2.48 5.32h.03l2.48-5.32c.03-.07.1-.12.2-.12h.17c.13 0 .2.08.2.17l1.34 7.58c.03.16-.06.26-.2.26h-1.03c-.1 0-.2-.1-.22-.17l-.66-4.28h-.04l-1.97 4.44c-.02.06-.1.12-.19.12h-.2c-.1 0-.16-.06-.2-.12l-2-4.44h-.03l-.65 4.28a.22.22 0 0 1-.2.17h-1.02c-.15 0-.24-.1-.21-.26l1.34-7.58Z"></path></g><mask id="v" width="193" height="88" x="0" y="0" maskUnits="userSpaceOnUse" style="mask-type:luminance"><path fill="#fff" d="M192.54 0H0v88h192.54V0Z"></path></mask><g mask="url(#v)"><path fill="#fff" d="M111.45 60.66c0-.11.1-.21.21-.21h2.59c1.34 0 2.38.9 2.38 2.08 0 .87-.71 1.55-1.25 1.8.6.19 1.47.8 1.47 1.83 0 1.26-1.08 2.18-2.46 2.18h-2.73a.21.21 0 0 1-.21-.21v-7.47Zm2.66 3.1c.58 0 .97-.45.97-1.01s-.4-.96-.97-.96h-1.2v1.97h1.2Zm.16 3.25a1 1 0 0 0 1.02-1.03c0-.59-.57-.98-1.16-.98h-1.22v2.01h1.36Z"></path></g><mask id="w" width="193" height="88" x="0" y="0" maskUnits="userSpaceOnUse" style="mask-type:luminance"><path fill="#fff" d="M192.54 0H0v88h192.54V0Z"></path></mask><g mask="url(#w)"><path fill="#fff" d="M119.42 60.66c0-.11.1-.21.22-.21h1.07c.12 0 .21.1.21.21v4.61c0 .96.66 1.72 1.63 1.72.98 0 1.65-.76 1.65-1.7v-4.63c0-.11.1-.22.21-.22h1.08c.1 0 .2.1.2.22v4.69a3.1 3.1 0 0 1-3.14 3.1 3.09 3.09 0 0 1-3.13-3.1v-4.7.01Z"></path></g><mask id="x" width="193" height="88" x="0" y="0" maskUnits="userSpaceOnUse" style="mask-type:luminance"><path fill="#fff" d="M192.54 0H0v88h192.54V0Z"></path></mask><g mask="url(#x)"><path fill="#fff" d="M128.77 60.66c0-.11.1-.21.22-.21h3.22a2.44 2.44 0 0 1 2.46 2.42c0 1.04-.69 1.88-1.67 2.28l1.54 2.86c.08.15 0 .33-.19.33h-1.18c-.1 0-.16-.06-.18-.1l-1.5-2.99h-1.25v2.88c0 .1-.1.2-.22.2H129a.21.21 0 0 1-.22-.2v-7.47Zm3.32 3.38c.6 0 1.11-.51 1.11-1.15 0-.6-.51-1.09-1.11-1.09h-1.84v2.24h1.84Z"></path></g><mask id="y" width="193" height="88" x="0" y="0" maskUnits="userSpaceOnUse" style="mask-type:luminance"><path fill="#fff" d="M192.54 0H0v88h192.54V0Z"></path></mask><g mask="url(#y)"><path fill="#fff" d="M140.9 60.33c1.01 0 1.98.4 2.75 1.05.09.1.1.23.01.32l-.7.73c-.09.1-.19.1-.29 0a2.55 2.55 0 0 0-1.7-.65 2.59 2.59 0 0 0-2.53 2.61c0 1.41 1.12 2.58 2.54 2.58.63 0 1.11-.19 1.34-.28v-.96h-.9c-.13 0-.22-.09-.22-.2v-.9c0-.12.1-.2.21-.2h2.17c.11 0 .2.1.2.2v2.9c0 .09-.04.14-.09.18 0 0-1.16.73-2.8.73a4.05 4.05 0 0 1 0-8.1Z"></path></g><mask id="z" width="193" height="88" x="0" y="0" maskUnits="userSpaceOnUse" style="mask-type:luminance"><path fill="#fff" d="M192.54 0H0v88h192.54V0Z"></path></mask><g mask="url(#z)"><path fill="#fff" d="M149.77 64.96v-.76c0-.12.1-.21.21-.21h2.52c.12 0 .21.09.21.21v.76c0 .11-.09.2-.21.2h-2.52a.2.2 0 0 1-.21-.2Z"></path></g><mask id="A" width="193" height="88" x="0" y="0" maskUnits="userSpaceOnUse" style="mask-type:luminance"><path fill="#fff" d="M192.54 0H0v88h192.54V0Z"></path></mask><g mask="url(#A)"><path fill="#fff" d="M158.42 67.87c.74-.9 2.16-2.76 2.92-3.76.35-.43.58-.87.58-1.25 0-.51-.39-1.03-1.2-1.03-.54 0-1 .39-1.26.67-.1.09-.22.09-.3 0l-.55-.55c-.07-.06-.09-.2-.01-.29 0 0 .88-1.1 2.22-1.1 1.62 0 2.52 1.02 2.52 2.24 0 .73-.32 1.2-.76 1.82-.48.7-1.34 1.75-1.94 2.5h2.44c.11 0 .21.1.21.22v.78c0 .11-.1.21-.21.21h-4.45a.21.21 0 0 1-.21-.21v-.26Z"></path></g><mask id="B" width="193" height="88" x="0" y="0" maskUnits="userSpaceOnUse" style="mask-type:luminance"><path fill="#fff" d="M192.54 0H0v88h192.54V0Z"></path></mask><g mask="url(#B)"><path fill="#fff" d="M165.73 64.5c0-2.46 1.03-3.94 2.84-3.94 1.8 0 2.84 1.48 2.84 3.95s-1.03 3.94-2.84 3.94c-1.8 0-2.84-1.47-2.84-3.94Zm4.2 0c0-1.66-.5-2.6-1.36-2.6-.87 0-1.36.94-1.36 2.6 0 1.67.5 2.62 1.36 2.62.87 0 1.37-.93 1.37-2.61Z"></path></g><mask id="C" width="193" height="88" x="0" y="0" maskUnits="userSpaceOnUse" style="mask-type:luminance"><path fill="#fff" d="M192.54 0H0v88h192.54V0Z"></path></mask><g mask="url(#C)"><path fill="#fff" d="M173.52 67.87c.75-.9 2.17-2.76 2.92-3.76.35-.43.58-.87.58-1.25 0-.51-.38-1.03-1.2-1.03-.54 0-1 .39-1.26.67-.09.09-.21.09-.3 0l-.54-.55c-.07-.06-.1-.2-.02-.29 0 0 .88-1.1 2.23-1.1 1.6 0 2.51 1.02 2.51 2.24 0 .73-.32 1.2-.76 1.82-.48.7-1.34 1.75-1.93 2.5h2.43c.11 0 .22.1.22.22v.78c0 .11-.1.21-.22.21h-4.44a.21.21 0 0 1-.22-.21v-.26Z"></path></g><mask id="D" width="193" height="88" x="0" y="0" maskUnits="userSpaceOnUse" style="mask-type:luminance"><path fill="#fff" d="M192.54 0H0v88h192.54V0Z"></path></mask><g mask="url(#D)"><path fill="#fff" d="m180.76 67.13.57-.55c.07-.06.18-.09.27-.01.04.05.7.63 1.45.63.76 0 1.3-.62 1.3-1.33 0-.71-.46-1.26-1.36-1.26h-1.73c-.23 0-.35-.22-.35-.4V60.9c0-.11.09-.21.21-.21h3.56c.13 0 .22.1.22.2v.78c0 .1-.1.21-.22.21h-2.5v1.5h.97c1.6 0 2.58 1.03 2.58 2.5 0 1.48-1.17 2.58-2.73 2.58-1.2 0-1.94-.6-2.22-.93-.15-.17-.16-.25-.02-.39Z"></path></g></g><defs><clipPath id="a"><path fill="#fff" d="M0 0h193v88H0z"></path></clipPath></defs></svg> 