<svg width="206" height="153" viewBox="0 0 206 153" fill="none" xmlns="http://www.w3.org/2000/svg">
<path d="M24.7228 49.8721C21.1755 49.8721 17.9458 49.2368 14.9809 48.0191C12.0689 46.8014 9.47463 45.0543 7.35683 42.8307C5.23903 40.66 3.54478 37.9599 2.37999 34.9421C1.2152 31.9243 0.632812 28.536 0.632812 24.9888C0.632812 21.4416 1.2152 18.0532 2.37999 15.0355C3.54478 11.9648 5.23903 9.31759 7.35683 7.14692C9.47463 4.97624 12.0689 3.22912 14.9809 1.95848C17.9458 0.740787 21.1755 0.105469 24.6698 0.105469C27.5818 0.105469 30.4408 0.634901 33.2469 1.58788C36.053 2.5938 38.4355 4.12915 40.3945 6.19394L40.818 6.61748L39.0708 8.62933L38.5944 8.0999C37.7472 7.19986 36.7413 6.40571 35.6294 5.71745C34.5176 5.02919 33.3528 4.44681 32.1351 3.97032C30.9173 3.49383 29.6467 3.17618 28.376 2.9644C27.1053 2.75263 25.8876 2.64674 24.7228 2.64674C21.5461 2.64674 18.5812 3.22912 15.9869 4.39387C13.3925 5.55862 11.1159 7.14692 9.26283 9.15876C7.40976 11.1706 5.9273 13.553 4.92134 16.2532C3.91539 18.9533 3.38596 21.9181 3.38596 24.9888C3.38596 28.0595 3.91539 31.0243 4.92134 33.7774C5.9273 36.4775 7.35683 38.8599 9.2099 40.8718C11.063 42.8836 13.3396 44.4719 15.9339 45.6366C18.5282 46.8014 21.4931 47.3838 24.7228 47.3838C27.4759 47.3838 30.229 46.8543 32.9822 45.7955C35.6824 44.7366 37.9061 43.1483 39.6533 41.0306L40.0768 40.5012L42.0358 42.3542L41.6652 42.8307C39.6532 45.266 37.1119 47.0661 34.0411 48.2309C30.9703 49.2368 27.8465 49.8721 24.7228 49.8721Z" fill="#725936"/>
<path d="M39.8638 41.0839C38.1166 43.2546 35.787 44.8958 33.0868 45.9547C30.3337 47.0135 27.5276 47.5959 24.7215 47.5959C21.4389 47.5959 18.474 47.0135 15.8268 45.8488C13.1795 44.684 10.9029 43.0428 8.99686 41.0309C7.09084 39.0191 5.66133 36.5837 4.60243 33.8307C3.59648 31.0776 3.06702 28.1128 3.06702 24.9362C3.06702 21.8125 3.59647 18.7948 4.65537 16.0417C5.71426 13.2887 7.19675 10.9062 9.04982 8.84145C10.9558 6.82961 13.2325 5.18837 15.8797 4.02362C18.527 2.85887 21.4919 2.27649 24.7215 2.27649C25.8863 2.27649 27.157 2.38238 28.4277 2.59415C29.6983 2.80592 30.969 3.17653 32.2397 3.60007C33.5104 4.07656 34.6752 4.65894 35.84 5.3472C36.9518 6.03546 37.9578 6.88255 38.8578 7.78259L39.1226 8.0473L40.4462 6.51195L40.2344 6.30018C38.3284 4.28833 35.9458 2.75298 33.1927 1.74706C30.4396 0.741137 27.6335 0.264648 24.7215 0.264648C21.2801 0.264648 18.0505 0.899967 15.1385 2.11766C12.2265 3.33536 9.68516 5.08248 7.6203 7.20021C5.5025 9.37088 3.86122 11.9651 2.69643 14.9829C1.53164 18.0006 0.949219 21.2831 0.949219 24.8303C0.949219 28.3775 1.53164 31.66 2.69643 34.6777C3.86122 37.6955 5.5025 40.2897 7.6203 42.4604C9.7381 44.6311 12.2265 46.3253 15.1385 47.543C17.9975 48.7606 21.2801 49.396 24.7215 49.396C27.7923 49.396 30.9161 48.8136 33.881 47.6488C36.8989 46.4841 39.3873 44.684 41.3992 42.3016L41.611 42.0369L40.0756 40.8192L39.8638 41.0839Z" fill="#725936"/>
<path d="M64.5908 49.8725C61.1494 49.8725 57.9197 49.2372 54.9548 48.0195C51.9899 46.8018 49.3956 45.0547 47.2248 42.8311C45.0541 40.6604 43.3599 38.0132 42.1421 34.9425C40.9244 31.9248 40.2891 28.5364 40.2891 24.9363C40.2891 21.3361 40.9244 17.9478 42.1421 14.93C43.3599 11.9122 45.0541 9.26506 47.2248 7.04145C49.3956 4.87078 51.9369 3.12365 54.9019 1.85301C57.8668 0.635319 61.0964 0 64.5908 0C68.0851 0 71.3148 0.635319 74.2797 1.85301C77.2446 3.07071 79.786 4.81783 81.9567 7.04145C84.1275 9.21212 85.8217 11.8593 87.0395 14.93C88.2572 17.9478 88.8925 21.3361 88.8925 24.9363C88.8925 28.5364 88.2572 31.9248 87.0395 34.9425C85.8217 37.9603 84.1275 40.6075 81.9567 42.8311C79.786 45.0017 77.1917 46.7489 74.2268 48.0195C71.2619 49.2372 68.0322 49.8725 64.5908 49.8725ZM64.5908 2.59422C61.467 2.59422 58.5021 3.17659 55.9078 4.34134C53.2606 5.5061 50.9839 7.09439 49.0779 9.10623C47.1719 11.1181 45.6894 13.5005 44.6305 16.2006C43.5716 18.9007 43.0422 21.8656 43.0422 24.9363C43.0422 28.0599 43.5716 30.9718 44.5776 33.6719C45.5835 36.372 47.066 38.7544 48.972 40.7663C50.8251 42.7781 53.1547 44.3664 55.749 45.5312C58.3962 46.6959 61.3611 47.2783 64.5908 47.2783C67.8204 47.2783 70.7853 46.6959 73.4326 45.5312C76.0798 44.3664 78.3565 42.7781 80.2095 40.7663C82.1156 38.7544 83.5451 36.372 84.604 33.6719C85.6099 30.9718 86.1394 28.007 86.1394 24.9363C86.1394 21.8126 85.6099 18.9007 84.551 16.2006C83.4921 13.5005 82.0097 11.1181 80.1036 9.10623C78.1976 7.09439 75.921 5.5061 73.2738 4.34134C70.6265 3.17659 67.7145 2.59422 64.5908 2.59422Z" fill="#725936"/>
<path d="M81.7437 7.25295C79.6259 5.08227 77.0846 3.38809 74.1726 2.1704C71.2606 0.952702 68.031 0.317383 64.5895 0.317383C61.1481 0.317383 57.9185 0.952702 55.0065 2.1704C52.0945 3.38809 49.5532 5.13522 47.4354 7.25295C45.3176 9.42362 43.6233 12.0178 42.4585 15.0356C41.2408 18.0534 40.6055 21.3358 40.6055 24.936C40.6055 28.5361 41.1879 31.8186 42.4056 34.8364C43.6233 37.8012 45.2646 40.4483 47.3824 42.619C49.5002 44.7897 52.0416 46.4839 55.0065 47.7016C57.9185 48.9193 61.1481 49.5546 64.5366 49.5546C67.9251 49.5546 71.1547 48.9193 74.0667 47.7016C76.9787 46.4839 79.5729 44.7367 81.6907 42.619C83.8085 40.4483 85.5028 37.8541 86.7205 34.8364C87.9383 31.8715 88.5207 28.5361 88.5207 24.936C88.5207 21.3888 87.9383 18.0534 86.7205 15.0356C85.5557 12.0708 83.8615 9.42362 81.7437 7.25295ZM64.5895 47.5957C61.3069 47.5957 58.2891 47.0133 55.6419 45.8486C52.9946 44.6838 50.665 43.0426 48.759 41.0307C46.853 39.0189 45.3705 36.5835 44.3116 33.8304C43.2527 31.0774 42.7233 28.1126 42.7233 24.936C42.7233 21.8123 43.2527 18.7946 44.3116 16.0415C45.3705 13.2885 46.9059 10.906 48.8119 8.84124C50.718 6.8294 53.0475 5.18816 55.7477 4.02341C58.395 2.85866 61.4128 2.27628 64.5895 2.27628C67.7662 2.27628 70.7312 2.85866 73.4313 4.02341C76.0786 5.18816 78.4611 6.8294 80.3671 8.84124C82.2731 10.8531 83.8085 13.2885 84.8674 16.0415C85.9263 18.7946 86.4558 21.7594 86.4558 24.936C86.4558 28.0596 85.9263 31.0774 84.8674 33.8304C83.8085 36.5835 82.3261 38.9659 80.4201 41.0307C78.5141 43.0426 76.1845 44.6838 73.5372 45.8486C70.89 47.0133 67.8721 47.5957 64.5895 47.5957Z" fill="#725936"/>
<path d="M181.067 49.8725C177.626 49.8725 174.396 49.2372 171.431 48.0195C168.466 46.8018 165.872 45.0547 163.701 42.8311C161.531 40.6604 159.836 38.0132 158.619 34.9425C157.401 31.9248 156.766 28.5364 156.766 24.9363C156.766 21.3361 157.401 17.9478 158.619 14.93C159.836 11.9122 161.531 9.26506 163.701 7.04145C165.872 4.87078 168.414 3.12365 171.378 1.85301C174.343 0.635319 177.573 0 181.067 0C184.562 0 187.791 0.635319 190.756 1.85301C193.721 3.07071 196.263 4.81783 198.433 7.04145C200.604 9.21212 202.298 11.8593 203.516 14.93C204.734 17.9478 205.369 21.3361 205.369 24.9363C205.369 28.5364 204.734 31.9248 203.516 34.9425C202.298 37.9603 200.604 40.6075 198.433 42.8311C196.263 45.0017 193.668 46.7489 190.703 48.0195C187.791 49.2372 184.509 49.8725 181.067 49.8725ZM181.067 2.59422C177.944 2.59422 174.979 3.17659 172.384 4.34134C169.737 5.5061 167.46 7.09439 165.554 9.10623C163.648 11.1181 162.166 13.5005 161.107 16.2006C160.048 18.9007 159.519 21.8656 159.519 24.9363C159.519 28.0599 160.048 30.9718 161.054 33.6719C162.06 36.372 163.543 38.7544 165.449 40.7663C167.302 42.7781 169.631 44.3664 172.226 45.5312C174.873 46.6959 177.838 47.2783 181.067 47.2783C184.297 47.2783 187.262 46.6959 189.909 45.5312C192.556 44.3664 194.833 42.7781 196.686 40.7663C198.539 38.7544 200.022 36.372 201.081 33.6719C202.086 30.9718 202.616 28.007 202.616 24.9363C202.616 21.8126 202.087 18.9007 201.028 16.2006C199.969 13.5005 198.486 11.1181 196.58 9.10623C194.674 7.09439 192.398 5.5061 189.75 4.34134C187.156 3.17659 184.244 2.59422 181.067 2.59422Z" fill="#725936"/>
<path d="M198.222 7.25295C196.104 5.08227 193.563 3.38809 190.651 2.1704C187.739 0.952702 184.509 0.317383 181.068 0.317383C177.626 0.317383 174.397 0.952702 171.485 2.1704C168.573 3.38809 166.031 5.13522 163.914 7.25295C161.796 9.42362 160.102 12.0178 158.937 15.0356C157.719 18.0004 157.137 21.3358 157.137 24.936C157.137 28.5361 157.719 31.8186 158.937 34.8364C160.155 37.8012 161.796 40.4483 163.914 42.619C166.031 44.7897 168.573 46.4839 171.538 47.7016C174.45 48.9193 177.679 49.5546 181.068 49.5546C184.456 49.5546 187.686 48.9193 190.598 47.7016C193.51 46.4839 196.104 44.7367 198.222 42.619C200.34 40.4483 202.034 37.8541 203.252 34.8364C204.47 31.8715 205.052 28.5361 205.052 24.936C205.052 21.3888 204.47 18.0534 203.252 15.0356C202.034 12.0708 200.34 9.42362 198.222 7.25295ZM181.068 47.5957C177.785 47.5957 174.767 47.0133 172.12 45.8486C169.473 44.6838 167.143 43.0426 165.237 41.0307C163.331 39.0189 161.849 36.5835 160.79 33.8304C159.731 31.0774 159.202 28.1126 159.202 24.936C159.202 21.8123 159.731 18.7946 160.79 16.0415C161.849 13.2885 163.384 10.906 165.29 8.84124C167.196 6.8294 169.526 5.18816 172.226 4.02341C174.873 2.85866 177.891 2.27628 181.068 2.27628C184.245 2.27628 187.209 2.85866 189.91 4.02341C192.557 5.18816 194.939 6.8294 196.845 8.84124C198.751 10.8531 200.287 13.2885 201.346 16.0415C202.405 18.7946 202.934 21.7594 202.934 24.936C202.934 28.0596 202.405 31.0774 201.346 33.8304C200.287 36.5835 198.804 38.9659 196.898 41.0307C194.992 43.0426 192.663 44.6838 190.016 45.8486C187.368 47.0133 184.35 47.5957 181.068 47.5957Z" fill="#725936"/>
<path d="M90.6914 48.5486V1.32324H103.769C105.463 1.32324 107.157 1.53502 108.904 1.90562C110.652 2.27622 112.293 2.96448 113.67 3.86452C115.099 4.76455 116.317 6.03519 117.217 7.57054C118.117 9.15884 118.593 11.1177 118.593 13.3943C118.593 15.4061 118.223 17.2592 117.482 18.8474C116.74 20.4357 115.681 21.7593 114.411 22.8182C113.14 23.8771 111.658 24.6712 109.963 25.2006C108.269 25.7301 106.469 25.9948 104.616 25.9948H93.3916V48.6015H90.6914V48.5486ZM104.669 23.4535C106.045 23.4535 107.422 23.2417 108.799 22.8711C110.122 22.5005 111.34 21.9182 112.399 21.124C113.458 20.3299 114.305 19.271 114.94 18.0004C115.576 16.7297 115.893 15.1944 115.893 13.3943C115.893 11.5942 115.576 10.0589 114.887 8.84118C114.199 7.62349 113.299 6.67051 112.24 5.9293C111.128 5.1881 109.91 4.65867 108.534 4.34101C107.157 4.02335 105.728 3.86452 104.351 3.86452H93.3916V23.4535H104.669Z" fill="#725936"/>
<path d="M113.512 4.07622C112.135 3.17619 110.547 2.54087 108.852 2.17027C107.158 1.79966 105.464 1.58789 103.77 1.58789H90.957V48.1779H93.0219V25.6771H104.564C106.417 25.6771 108.164 25.4123 109.805 24.8829C111.447 24.3535 112.929 23.5593 114.147 22.5534C115.365 21.5475 116.371 20.2239 117.112 18.6886C117.853 17.1532 118.224 15.3531 118.224 13.3942C118.224 11.1177 117.747 9.21172 116.9 7.7293C116.106 6.19395 114.941 4.97626 113.512 4.07622ZM116.265 13.3942C116.265 15.2472 115.947 16.8355 115.259 18.1591C114.57 19.4827 113.723 20.5416 112.612 21.3887C111.553 22.2357 110.282 22.8181 108.905 23.1887C107.529 23.5593 106.099 23.7711 104.723 23.7711H93.1278V3.54679H104.405C105.782 3.54679 107.211 3.70562 108.641 4.07622C110.07 4.39388 111.341 4.97626 112.453 5.71746C113.565 6.45867 114.518 7.46459 115.206 8.73523C115.894 9.89998 116.265 11.4883 116.265 13.3942Z" fill="#725936"/>
<path d="M138.553 48.337C137.547 48.337 136.435 48.284 135.271 48.1781C134 48.0723 130.294 47.1722 127.064 45.2663L126.694 45.0545L127.17 42.3014L127.964 42.725C130.77 44.3133 133.312 45.2663 135.588 45.5839C136.541 45.6898 137.494 45.7957 138.5 45.7957C140.406 45.7957 142.259 45.5839 144.007 45.1074C145.754 44.6309 147.342 43.8897 148.666 42.8838C149.989 41.8779 151.101 40.5014 151.895 38.9131C152.689 37.2718 153.113 35.26 153.113 32.9305C153.113 30.9716 152.742 29.2774 152.054 27.8479C151.366 26.4714 150.413 25.2537 149.248 24.3537C148.083 23.4537 146.76 22.7654 145.277 22.2889C143.795 21.8124 142.312 21.6006 140.83 21.6006C139.877 21.6006 138.818 21.7065 137.653 21.8654C136.488 22.0242 135.376 22.2889 134.318 22.6595L133.735 22.8713L132.888 20.7536L133.259 20.4359C134.688 19.3241 136.329 18.0005 138.13 16.4652C139.93 14.9827 141.783 13.4474 143.583 11.912C145.383 10.3767 147.13 8.89427 148.719 7.51775C149.83 6.56477 150.836 5.66473 151.684 4.92353H126.164V2.27637H155.019V5.18824L154.807 5.40002C153.748 6.40594 152.478 7.51775 151.048 8.73544C149.619 9.95313 148.083 11.2767 146.548 12.5474C145.065 13.818 143.477 15.1416 141.783 16.5181C140.777 17.3652 139.771 18.2123 138.818 19.0064H138.871C139.559 18.9535 140.247 18.9005 140.936 18.9005C142.736 18.9005 144.536 19.1653 146.23 19.6947C147.977 20.2241 149.566 21.0712 150.995 22.236C152.425 23.3478 153.59 24.8302 154.49 26.5773C155.39 28.3244 155.866 30.3892 155.866 32.7717C155.866 35.5247 155.337 37.9601 154.384 39.919C153.378 41.8779 152.054 43.5191 150.413 44.7368C148.825 45.9545 146.919 46.9075 144.854 47.4899C142.842 48.0193 140.724 48.337 138.553 48.337Z" fill="#725936"/>
<path d="M150.892 22.5006C149.515 21.3888 147.98 20.5947 146.232 20.0652C144.538 19.5358 142.738 19.2711 140.991 19.2711C140.356 19.2711 139.667 19.324 138.979 19.377C138.608 19.4299 138.185 19.4828 137.814 19.5358C139.032 18.5299 140.356 17.471 141.679 16.3592C143.373 14.9297 144.909 13.6591 146.444 12.3885C147.98 11.0649 149.462 9.79424 150.945 8.57654C152.374 7.35885 153.645 6.1941 154.704 5.24112L154.809 5.13523V2.54102H126.59V4.49991H152.639C151.686 5.39995 150.468 6.45881 149.091 7.67651C147.45 9.10598 145.703 10.5884 143.956 12.0708C142.156 13.6061 140.303 15.1415 138.502 16.6239C136.702 18.1063 135.061 19.4299 133.631 20.5947L133.42 20.7535L134.108 22.3947L134.426 22.2888C135.538 21.9182 136.649 21.6535 137.814 21.4417C138.979 21.2829 140.091 21.177 141.044 21.177C142.579 21.177 144.062 21.3888 145.597 21.8653C147.08 22.3418 148.456 23.03 149.621 23.983C150.786 24.936 151.792 26.1537 152.533 27.5832C153.274 29.0126 153.645 30.7598 153.645 32.7716C153.645 35.154 153.221 37.2188 152.374 38.913C151.527 40.6072 150.415 41.9837 149.039 42.9896C147.662 44.0485 146.021 44.7897 144.273 45.2662C142.473 45.7427 140.567 45.9545 138.661 45.9545C137.655 45.9545 136.649 45.9015 135.696 45.7427C133.367 45.425 130.772 44.4721 127.966 42.8308L127.543 42.619L127.172 44.7368L127.384 44.8427C130.561 46.7486 134.214 47.5957 135.485 47.7016C136.649 47.8075 137.708 47.8604 138.714 47.8604C140.832 47.8604 142.95 47.5957 145.015 47.0133C147.08 46.4309 148.88 45.5309 150.468 44.3132C152.056 43.0955 153.38 41.5072 154.333 39.6013C155.286 37.6953 155.815 35.3129 155.815 32.6128C155.815 30.3362 155.392 28.2714 154.492 26.5772C153.433 25.0419 152.268 23.6124 150.892 22.5006Z" fill="#725936"/>
<path d="M24.7209 100.804H3.06641V57.0732H22.8678C25.1445 57.0732 27.2093 57.338 29.0624 57.8674C30.8625 58.3968 32.4509 59.191 33.7215 60.2498C34.9922 61.3087 35.9982 62.5793 36.6865 64.1147C37.3747 65.65 37.6924 67.4501 37.6924 69.462C37.6924 70.362 37.5336 71.2091 37.2689 72.0562C37.0041 72.9033 36.5806 73.6974 36.1041 74.4386C35.6276 75.1798 35.0981 75.8151 34.4628 76.3446C33.8275 76.874 33.245 77.2976 32.5568 77.5623C33.5627 77.9329 34.4628 78.4623 35.3628 79.0976C36.2629 79.7329 37.0571 80.5271 37.7454 81.3212C38.4336 82.1683 38.9631 83.1213 39.3867 84.1272C39.8102 85.1332 40.022 86.245 40.022 87.4097C40.022 89.898 39.5455 91.9628 38.6454 93.657C37.7454 95.3512 36.5276 96.7277 35.0981 97.7866C33.6156 98.8455 31.9744 99.5867 30.1742 100.01C28.3741 100.434 26.521 100.804 24.7209 100.804ZM22.1796 66.7619H15.1908V74.068H22.1266C22.4972 74.068 22.8678 73.9621 23.2385 73.8033C23.6091 73.6445 23.9797 73.4327 24.2974 73.115C24.615 72.7974 24.8797 72.4268 25.0915 71.9503C25.3033 71.5267 25.4092 70.9973 25.4092 70.4149C25.4092 69.8326 25.3033 69.3561 25.1445 68.8796C24.9327 68.456 24.7209 68.0325 24.4033 67.7148C24.0856 67.3972 23.7679 67.1325 23.3973 66.9736C22.9208 66.8677 22.5502 66.7619 22.1796 66.7619ZM15.1908 82.9095V91.1157H23.4502C23.8208 91.1157 24.2444 91.0628 24.7209 90.904C25.1974 90.7451 25.621 90.5334 26.0445 90.2157C26.4681 89.898 26.8387 89.4745 27.1034 88.9451C27.4211 88.4156 27.527 87.7803 27.527 86.9862C27.527 86.3508 27.4211 85.7685 27.2093 85.292C26.9975 84.8155 26.6799 84.392 26.3093 84.0213C25.9386 83.7037 25.5151 83.439 24.9856 83.2272C24.4562 83.0684 23.9267 82.9625 23.3973 82.9625H15.1908V82.9095Z" fill="#725936"/>
<path d="M77.8262 100.804H63.9547L57.1248 87.2509H53.1009V100.804H40.9766V57.0732H60.4074C62.7899 57.0732 64.9606 57.4438 66.9725 58.1851C68.9844 58.9263 70.6787 59.9322 72.1082 61.3087C73.5377 62.6323 74.7025 64.2206 75.4967 66.0736C76.2909 67.9266 76.7144 69.9914 76.7144 72.215C76.7144 75.2857 76.0261 77.9329 74.6495 80.1565C73.273 82.3801 71.3669 84.1272 68.9844 85.3449L77.8262 100.804ZM53.1009 77.1917H59.8779C60.5133 77.1917 61.1486 77.0858 61.731 76.8211C62.3134 76.6093 62.7899 76.2387 63.2664 75.8151C63.6899 75.3916 64.0076 74.8622 64.2723 74.2798C64.5371 73.6445 64.643 73.0092 64.643 72.215C64.643 71.5267 64.5371 70.8385 64.2723 70.2032C64.0076 69.5678 63.6899 69.0384 63.2664 68.6149C62.8428 68.1913 62.3134 67.8207 61.7839 67.556C61.2015 67.2913 60.6191 67.1854 59.9838 67.1854H53.1539V77.1917H53.1009Z" fill="#725936"/>
<path d="M121.664 100.804H108.904L106.628 94.8747H90.0559L87.8322 100.804H75.0195L92.7032 57.0732H104.033L121.664 100.804ZM98.2624 72.7444L97.8917 74.3327L93.8679 84.8684H102.763L98.7389 74.3327L98.4212 72.7444H98.2624Z" fill="#725936"/>
<path d="M119.547 97.6275L123.147 87.4624C124.1 87.8859 125.212 88.3095 126.483 88.8389C127.753 89.3683 129.077 89.7919 130.507 90.2154C131.883 90.639 133.313 91.0096 134.742 91.2743C136.172 91.539 137.495 91.6978 138.713 91.6978C139.931 91.6978 140.99 91.5919 141.784 91.3802C142.578 91.1684 143.213 90.9037 143.637 90.5331C144.06 90.1625 144.378 89.7919 144.59 89.3154C144.749 88.8389 144.855 88.3624 144.855 87.78C144.855 87.0918 144.643 86.5623 144.272 86.0858C143.902 85.6094 143.266 85.1858 142.472 84.8152C141.678 84.4446 140.672 84.0211 139.454 83.6504C138.236 83.2798 136.86 82.8034 135.219 82.2739C134.477 82.0622 133.63 81.7445 132.624 81.4798C131.618 81.1621 130.612 80.7915 129.553 80.315C128.495 79.8915 127.489 79.3621 126.43 78.7267C125.424 78.1444 124.471 77.4032 123.677 76.609C122.882 75.8149 122.194 74.8619 121.718 73.856C121.241 72.7971 120.976 71.6323 120.976 70.3617C120.976 65.6498 122.512 62.1026 125.583 59.6142C128.653 57.1259 133.313 55.9082 139.613 55.9082C141.201 55.9082 142.737 56.0141 144.219 56.2259C145.702 56.4376 147.131 56.7553 148.508 57.1259C149.884 57.4965 151.208 57.92 152.532 58.3965C153.802 58.873 155.073 59.3495 156.238 59.826L153.008 69.5676C152.426 69.3028 151.526 68.9852 150.361 68.5616C149.196 68.1381 147.872 67.7675 146.496 67.3969C145.066 67.0263 143.69 66.7086 142.26 66.4439C140.831 66.1792 139.56 66.0204 138.448 66.0204C137.336 66.0204 136.436 66.1262 135.748 66.2851C135.06 66.4439 134.53 66.7086 134.107 66.9733C133.736 67.2381 133.418 67.6087 133.313 67.9793C133.154 68.3499 133.101 68.7205 133.101 69.144C133.101 69.7264 133.313 70.2558 133.736 70.7323C134.16 71.2088 134.742 71.5794 135.483 71.8971C136.225 72.2147 137.072 72.5324 138.078 72.85C139.084 73.1148 140.142 73.3795 141.254 73.6442C143.743 74.2266 145.966 74.9148 147.925 75.656C149.884 76.3972 151.526 77.2973 152.902 78.4091C154.279 79.5209 155.338 80.8445 156.026 82.4328C156.767 84.0211 157.085 85.927 157.085 88.2565C157.085 90.4801 156.555 92.492 155.549 94.1862C154.543 95.8803 153.167 97.3098 151.42 98.4746C149.673 99.6393 147.661 100.486 145.331 101.069C143.002 101.651 140.513 101.969 137.866 101.969C135.748 101.969 133.736 101.81 131.936 101.545C130.136 101.281 128.442 100.91 126.906 100.486C125.371 100.063 123.994 99.5864 122.777 99.0569C121.559 98.5804 120.5 98.051 119.547 97.6275Z" fill="#725936"/>
<path d="M159.043 100.804V57.0732H171.167V100.804H159.043Z" fill="#725936"/>
<path d="M173.762 100.804V57.0732H185.886V90.6922H202.987V100.804H173.762Z" fill="#725936"/>
<path d="M56.8586 149.353C56.8586 150.941 55.588 151.736 53.5231 151.736H47.2227V143H53.1525C55.0585 143 56.3821 143.794 56.3821 145.224C56.3821 146.23 55.7468 147.13 54.4761 147.235C55.8527 147.288 56.8586 147.924 56.8586 149.353ZM48.7051 146.706H52.8878C54.0526 146.706 54.8467 146.441 54.8467 145.488C54.8467 144.535 54.0526 144.271 52.8878 144.271H48.7051V146.706ZM55.3232 149.194C55.3232 148.188 54.5291 147.871 53.2054 147.871H48.7051V150.465H53.2054C54.5291 150.518 55.3232 150.2 55.3232 149.194Z" fill="#725936"/>
<path d="M68.8258 150.465V151.789H60.0898V143H68.6669V144.324H61.5723V146.653H67.608V147.977H61.6253V150.465H68.8258Z" fill="#725936"/>
<path d="M79.9964 150.412V151.736H72.0547V143H73.5371V150.412H79.9964Z" fill="#725936"/>
<path d="M91.5367 150.465V151.789H82.8008V143H91.3779V144.324H84.2832V146.653H90.266V147.977H84.2832V150.465H91.5367ZM87.0893 141.994H85.8716L87.8306 140.035H89.9483L87.0893 141.994Z" fill="#725936"/>
<path d="M106.098 143V151.736H104.616V145.012L100.433 150.041H100.327L96.1444 145.012V151.736H94.7148V143H96.3562L100.433 148.03L104.51 143H106.098Z" fill="#725936"/>
<path d="M118.858 142.788C120.923 142.788 122.988 143.688 122.988 145.435C122.988 146.918 121.559 147.712 119.494 148.4C117.694 149.035 116.37 149.724 116.052 150.571H123.2V151.841H114.199V151.153C114.464 149.565 116.105 148.241 118.647 147.341C120.235 146.759 121.453 146.388 121.453 145.488C121.453 144.535 120.129 144.059 118.805 144.059C117.376 144.059 116.264 144.641 115.417 145.753L114.411 144.959C115.205 143.688 116.846 142.788 118.858 142.788Z" fill="#725936"/>
<path d="M125.848 147.394C125.848 144.535 127.807 142.735 131.036 142.735C134.319 142.735 136.225 144.482 136.225 147.394C136.225 150.253 134.319 152.053 131.036 152.053C127.807 152 125.848 150.253 125.848 147.394ZM134.742 147.394C134.742 145.224 133.313 144.059 131.089 144.059C128.813 144.059 127.436 145.171 127.436 147.394C127.436 149.565 128.813 150.73 131.089 150.73C133.313 150.677 134.742 149.565 134.742 147.394Z" fill="#725936"/>
<path d="M143.425 142.788C145.49 142.788 147.554 143.688 147.554 145.435C147.554 146.918 146.125 147.712 144.06 148.4C142.26 149.035 140.936 149.724 140.619 150.571H147.766V151.841H138.766V151.153C139.03 149.565 140.672 148.241 143.213 147.341C144.801 146.759 146.019 146.388 146.019 145.488C146.019 144.535 144.695 144.059 143.372 144.059C141.942 144.059 140.83 144.641 139.983 145.753L138.977 144.959C139.772 143.688 141.413 142.788 143.425 142.788Z" fill="#725936"/>
<path d="M155.07 150.73C156.764 150.73 158.035 150.253 158.035 149.036C158.035 147.871 156.764 147.341 154.858 147.341C153.8 147.341 152.846 147.553 151.735 147.977L150.57 147.5L151.311 143H158.617V144.271H152.476L152.052 146.918C153.164 146.335 154.117 146.177 155.388 146.177C157.612 146.177 159.57 147.077 159.57 149.088C159.57 150.73 157.982 152.053 155.07 152.053C153.005 152.053 151.258 151.259 150.199 150.041L151.205 149.194C151.946 150.041 153.323 150.73 155.07 150.73Z" fill="#725936"/>
<path d="M168.785 107.846H167.832V133.629H168.785V107.846Z" fill="#725936"/>
<path d="M114.625 107.846V115.046L114.148 115.417L113.777 115.734V107.846H114.625Z" fill="#725936"/>
<path d="M107.636 107.846H90.7461V108.746H107.636V107.846Z" fill="#725936"/>
<path d="M114.358 132.729V133.681H91.168L91.8563 133.152L92.3857 132.729H114.358Z" fill="#725936"/>
<path d="M128.019 107.527C120.554 107.527 114.465 113.616 114.465 121.081C114.465 128.546 120.554 134.634 128.019 134.634C135.484 134.634 141.573 128.546 141.573 121.081C141.573 113.616 135.484 107.527 128.019 107.527ZM128.019 133.787C121.03 133.787 115.312 128.122 115.312 121.081C115.312 114.092 120.977 108.427 128.019 108.427C135.06 108.427 140.726 114.092 140.726 121.081C140.726 128.069 135.007 133.787 128.019 133.787Z" fill="#725936"/>
<path d="M128.018 109.274C121.505 109.274 116.211 114.569 116.211 121.081C116.211 127.593 121.505 132.887 128.018 132.887C134.53 132.887 139.824 127.593 139.824 121.081C139.824 114.569 134.53 109.274 128.018 109.274ZM128.018 132.04C121.982 132.04 117.058 127.116 117.058 121.081C117.058 115.045 121.982 110.122 128.018 110.122C134.053 110.122 138.977 115.045 138.977 121.081C138.977 127.116 134.053 132.04 128.018 132.04Z" fill="#725936"/>
<path d="M128.019 110.969C122.46 110.969 117.906 115.522 117.906 121.081C117.906 126.64 122.46 131.193 128.019 131.193C133.578 131.193 138.131 126.64 138.131 121.081C138.131 115.522 133.631 110.969 128.019 110.969ZM128.019 130.399C122.883 130.399 118.753 126.216 118.753 121.134C118.753 115.998 122.936 111.869 128.019 111.869C133.101 111.869 137.284 116.051 137.284 121.134C137.337 126.216 133.154 130.399 128.019 130.399Z" fill="#725936"/>
<path d="M128.02 112.663C123.361 112.663 119.602 116.475 119.602 121.081C119.602 125.74 123.414 129.499 128.02 129.499C132.626 129.499 136.438 125.687 136.438 121.081C136.491 116.422 132.679 112.663 128.02 112.663ZM128.02 128.705C123.837 128.705 120.396 125.317 120.396 121.081C120.396 116.899 123.784 113.457 128.02 113.457C132.255 113.457 135.644 116.846 135.644 121.081C135.644 125.264 132.202 128.705 128.02 128.705Z" fill="#725936"/>
<path d="M133.364 107.951L128.387 104.457L123.411 107.898L122.828 107.104L128.387 103.239L133.999 107.157L133.364 107.951Z" fill="#725936"/>
<path d="M18.7366 122.776H17.7836L15.7188 117.693L15.9835 117.005L16.2482 116.423L18.7366 122.776Z" fill="#725936"/>
<path d="M12.8085 107.846H12.332H12.2791H11.8026L1.53125 133.629H2.00774H2.0607H2.53718L12.8615 107.846H12.8085Z" fill="#725936"/>
<path d="M15.7752 107.846L5.50391 133.629H6.45691L16.7282 107.846H15.7752Z" fill="#725936"/>
<path d="M27.3149 129.499H11.0078L11.3784 128.652H26.9443L27.3149 129.499Z" fill="#725936"/>
<path d="M20.6974 122.776H19.7444L16.7266 115.205L16.9913 114.569L17.203 113.987L20.6974 122.776Z" fill="#725936"/>
<path d="M22.6565 122.776H21.7035L17.6797 112.769L17.9444 112.134L18.1562 111.552L22.6565 122.776Z" fill="#725936"/>
<path d="M24.6134 122.776H23.6075L18.6836 110.334L18.9483 109.646L19.1601 109.063L24.6134 122.776Z" fill="#725936"/>
<path d="M13.8125 107.846H14.8185L4.54718 133.629H3.48828L13.8125 107.846Z" fill="#725936"/>
<path d="M17.7305 107.846H18.7365L8.46515 133.629H7.40625L17.7305 107.846Z" fill="#725936"/>
<path d="M26.6258 127.753H11.6953L12.0659 126.853H26.2552L26.6258 127.753Z" fill="#725936"/>
<path d="M25.8855 125.953H12.4375L12.7552 125.105H25.5678L25.8855 125.953Z" fill="#725936"/>
<path d="M25.1965 124.258H13.125L13.4427 123.411H24.8788L25.1965 124.258Z" fill="#725936"/>
<path d="M28.9567 133.629H27.9508L26.5742 130.188H27.5802L28.9567 133.629Z" fill="#725936"/>
<path d="M26.9446 133.629H25.9916L24.668 130.188H25.621L26.9446 133.629Z" fill="#725936"/>
<path d="M25.0405 133.629H24.0875L22.7109 130.188H23.6639L25.0405 133.629Z" fill="#725936"/>
<path d="M23.0796 133.629H22.0736L20.75 130.188H21.703L23.0796 133.629Z" fill="#725936"/>
<path d="M79.2015 122.776H78.1955L76.1836 117.693L76.4483 117.005L76.6601 116.423L79.2015 122.776Z" fill="#725936"/>
<path d="M73.2187 107.846H72.7951H72.7422H72.2127L61.9414 133.629H62.4709H63.0003L73.2716 107.846H73.2187Z" fill="#725936"/>
<path d="M76.1854 107.846L65.9141 133.629H66.8671L77.1384 107.846H76.1854Z" fill="#725936"/>
<path d="M87.725 129.499H71.418L71.7886 128.652H87.4074L87.725 129.499Z" fill="#725936"/>
<path d="M81.1076 122.776H80.1546L77.1367 115.205L77.4014 114.569L77.6132 113.987L81.1076 122.776Z" fill="#725936"/>
<path d="M83.0684 122.776H82.1154L78.1445 112.769L78.3563 112.134L78.621 111.552L83.0684 122.776Z" fill="#725936"/>
<path d="M85.0765 122.776H84.0706L79.0938 110.334L79.3585 109.646L79.5702 109.063L85.0765 122.776Z" fill="#725936"/>
<path d="M74.2245 107.846H75.2834L64.9591 133.629H63.9531L74.2245 107.846Z" fill="#725936"/>
<path d="M78.1424 107.846H79.2013L68.8771 133.629H67.8711L78.1424 107.846Z" fill="#725936"/>
<path d="M87.0377 127.753H72.1602L72.4778 126.853H86.6671L87.0377 127.753Z" fill="#725936"/>
<path d="M86.3486 125.953H72.8477L73.1653 125.105H85.978L86.3486 125.953Z" fill="#725936"/>
<path d="M85.6595 124.258H73.5352L73.9058 123.411H85.2889L85.6595 124.258Z" fill="#725936"/>
<path d="M89.3686 133.629H88.4156L87.0391 130.188H88.045L89.3686 133.629Z" fill="#725936"/>
<path d="M87.4077 133.629H86.4547L85.0781 130.188H86.0311L87.4077 133.629Z" fill="#725936"/>
<path d="M85.4485 133.629H84.4955L83.1719 130.188H84.0719L85.4485 133.629Z" fill="#725936"/>
<path d="M83.4897 133.629H82.5367L81.1602 130.188H82.1661L83.4897 133.629Z" fill="#725936"/>
<path d="M193.088 122.776H192.082L190.07 117.693L190.335 117.005L190.547 116.423L193.088 122.776Z" fill="#725936"/>
<path d="M187.105 107.846H186.682H186.629H186.152L175.828 133.629H176.358H176.887L187.158 107.846H187.105Z" fill="#725936"/>
<path d="M190.125 107.846L179.801 133.629H180.754L191.025 107.846H190.125Z" fill="#725936"/>
<path d="M201.613 129.499H185.359L185.677 128.652H201.296L201.613 129.499Z" fill="#725936"/>
<path d="M194.994 122.776H194.094L191.023 115.205L191.288 114.569L191.5 113.987L194.994 122.776Z" fill="#725936"/>
<path d="M196.951 122.776H195.998L192.027 112.769L192.239 112.134L192.504 111.552L196.951 122.776Z" fill="#725936"/>
<path d="M198.963 122.776H197.957L192.98 110.334L193.245 109.646L193.457 109.063L198.963 122.776Z" fill="#725936"/>
<path d="M188.111 107.846H189.17L178.846 133.629H177.84L188.111 107.846Z" fill="#725936"/>
<path d="M192.029 107.846H193.088L182.817 133.629H181.758L192.029 107.846Z" fill="#725936"/>
<path d="M200.924 127.753H186.047L186.365 126.853H200.554L200.924 127.753Z" fill="#725936"/>
<path d="M200.235 125.953H186.734L187.105 125.105H199.865L200.235 125.953Z" fill="#725936"/>
<path d="M199.546 124.258H187.422L187.792 123.411H199.176L199.546 124.258Z" fill="#725936"/>
<path d="M203.255 133.629H202.302L200.926 130.188H201.932L203.255 133.629Z" fill="#725936"/>
<path d="M201.294 133.629H200.341L198.965 130.188H199.918L201.294 133.629Z" fill="#725936"/>
<path d="M199.335 133.629H198.382L197.059 130.188H198.012L199.335 133.629Z" fill="#725936"/>
<path d="M197.429 133.629H196.423L195.047 130.188H196.053L197.429 133.629Z" fill="#725936"/>
<path d="M31.1288 107.951H30.1758V133.735H31.1288V107.951Z" fill="#725936"/>
<path d="M51.6701 113.192L51.1406 114.092H60.7236V113.192H51.6701Z" fill="#725936"/>
<path d="M45.6349 122.299L37.7461 108.216V110.281L45.0525 123.411L45.6349 122.299Z" fill="#725936"/>
<path d="M37.7461 119.758V121.717L41.8758 129.076L42.4053 128.123L37.7461 119.758Z" fill="#725936"/>
<path d="M50.6639 114.992L42.3516 129.922H43.4105L51.7228 114.992H50.6639Z" fill="#725936"/>
<path d="M49.2894 129.923H49.8718L53.2603 123.835V121.717L48.707 129.923H49.2894Z" fill="#725936"/>
<path d="M55.0585 114.992H54.1055V133.734H55.0585V114.992Z" fill="#725936"/>
<path d="M52.625 111.393L52.1484 112.293H60.7255V111.393H52.625Z" fill="#725936"/>
<path d="M53.5759 109.698L53.1523 110.545H60.7235V109.698H53.5759Z" fill="#725936"/>
<path d="M54.582 107.951L54.1055 108.798H60.7236V107.951H54.582Z" fill="#725936"/>
<path d="M33.035 107.951H32.082V133.735H33.035V107.951Z" fill="#725936"/>
<path d="M34.9391 107.951H34.0391V133.735H34.9391V107.951Z" fill="#725936"/>
<path d="M36.7946 107.951H35.8945V133.735H36.7946V107.951Z" fill="#725936"/>
<path d="M43.4642 126.216L37.7461 115.945V117.851L42.9347 127.169L43.4642 126.216Z" fill="#725936"/>
<path d="M44.5231 124.363L37.7461 112.187V114.04L43.9936 125.263L44.5231 124.363Z" fill="#725936"/>
<path d="M56.9648 114.992H56.0117V133.734H56.9648V114.992Z" fill="#725936"/>
<path d="M58.818 114.992H57.918V133.734H58.818V114.992Z" fill="#725936"/>
<path d="M59.7734 133.734H60.6735V117.957V114.992H59.7734V133.734Z" fill="#725936"/>
<path d="M47.6487 129.922L53.2609 119.863V117.957L46.5898 129.922H47.6487Z" fill="#725936"/>
<path d="M44.4727 129.922H45.5316L53.2615 116.051V114.992H52.785L44.4727 129.922Z" fill="#725936"/>
<path d="M143.691 107.951H142.738V133.735H143.691V107.951Z" fill="#725936"/>
<path d="M156.398 128.44L155.922 127.593H165.452V128.44H156.398Z" fill="#725936"/>
<path d="M159.785 107.951V119.175L158.832 117.428V107.951H159.785Z" fill="#725936"/>
<path d="M157.404 130.24L156.875 129.34H165.452V130.24H157.404Z" fill="#725936"/>
<path d="M158.355 131.988L157.879 131.141H165.45V131.988H158.355Z" fill="#725936"/>
<path d="M159.308 133.682L158.832 132.835H165.45V133.682H159.308Z" fill="#725936"/>
<path d="M145.598 107.951H144.645V133.735H145.598V107.951Z" fill="#725936"/>
<path d="M147.451 107.951H146.551V133.735H147.451V107.951Z" fill="#725936"/>
<path d="M149.302 107.951H148.402V133.735H149.302V107.951Z" fill="#725936"/>
<path d="M161.691 107.951V122.563L160.738 120.869V107.951H161.691Z" fill="#725936"/>
<path d="M152.481 107.951L162.911 126.693H161.694L151.316 107.951H152.481Z" fill="#725936"/>
<path d="M163.598 107.951V125.952L162.645 124.311V107.951H163.598Z" fill="#725936"/>
<path d="M164.551 107.951H165.451V123.675V126.693H164.551V107.951Z" fill="#725936"/>
<path d="M156.449 126.693H155.39L152.902 122.193L150.043 117.057V115.151L156.449 126.693Z" fill="#725936"/>
<path d="M150.255 107.951L160.738 126.693H159.626L150.043 109.434V107.951H150.255Z" fill="#725936"/>
<path d="M158.567 126.693H157.561L150.043 113.192V111.286L157.985 125.581V125.634L158.567 126.693Z" fill="#725936"/>
<path d="M170.691 107.846H169.738V133.629H170.691V107.846Z" fill="#725936"/>
<path d="M172.545 107.846H171.645V133.629H172.545V107.846Z" fill="#725936"/>
<path d="M174.4 107.846H173.5V133.629H174.4V107.846Z" fill="#725936"/>
<path d="M105.306 111.552L104.141 112.452H90.7461V111.552H105.306Z" fill="#725936"/>
<path d="M102.976 113.404L101.812 114.304H90.7461V113.404H102.976Z" fill="#725936"/>
<path d="M114.36 130.876V131.829H93.6055L94.2938 131.3L94.8762 130.876H114.36Z" fill="#725936"/>
<path d="M114.36 129.022V129.975H96.0938L96.782 129.446L97.3644 129.022H114.36Z" fill="#725936"/>
<path d="M114.36 127.17V128.123H98.582L99.2703 127.593L99.7998 127.17H114.36Z" fill="#725936"/>
<path d="M107.636 118.328V119.599L90.7461 132.993V131.723L107.636 118.328Z" fill="#725936"/>
<path d="M107.636 115.787V117.058L90.7461 130.505V129.235L107.636 115.787Z" fill="#725936"/>
<path d="M107.636 113.299V114.569L90.7461 127.964V126.693L107.636 113.299Z" fill="#725936"/>
<path d="M107.636 110.863V112.134L90.7461 125.529V124.258L107.636 110.863Z" fill="#725936"/>
<path d="M107.636 109.698L106.524 110.598H90.7461V109.698H107.636Z" fill="#725936"/>
<path d="M112.874 107.846V116.37L112.398 116.74L112.027 117.005V107.846H112.874Z" fill="#725936"/>
<path d="M111.128 107.846V117.693L110.705 118.011L110.281 118.328V107.846H111.128Z" fill="#725936"/>
<path d="M109.382 107.846V119.017L108.906 119.387L108.535 119.705V107.846H109.382Z" fill="#725936"/>
</svg>
