<svg width="211" height="42" viewBox="0 0 211 42" fill="none" xmlns="http://www.w3.org/2000/svg">
<path fill-rule="evenodd" clip-rule="evenodd" d="M49.5181 25.4674C48.2241 17.9021 40.9911 12.8096 33.3625 14.0924L35.6148 1.42579L27.4631 0C26.7625 1.52123 23.694 8.46844 22.2041 16.3109C25.2423 18.3639 27.4685 21.5893 28.1317 25.4674C28.8399 29.6085 27.619 33.6295 25.12 36.6336C25.7463 37.3895 26.4544 38.0748 27.2315 38.6775C30.4227 41.154 34.2846 42.1221 38.0478 41.4891C45.6763 40.2058 50.8118 33.0327 49.5181 25.4674Z" fill="#001536"/>
<path fill-rule="evenodd" clip-rule="evenodd" d="M22.0467 17.1732C22.0968 16.8848 22.1493 16.5972 22.2039 16.3109C19.3158 14.3595 15.6938 13.4672 11.976 14.0924L14.2287 1.42579L6.07608 0C5.35025 1.57666 2.07963 8.98274 0.660343 17.1732C-0.477357 23.7395 -0.424822 30.8096 3.08284 35.7855C3.85314 36.8805 4.78412 37.8553 5.84492 38.6775C9.03611 41.154 12.8981 42.1221 16.6613 41.4891C20.1143 40.9081 23.0537 39.1184 25.1198 36.6336C24.8919 36.3595 24.6749 36.0765 24.4692 35.7855C20.9616 30.8092 20.909 23.7395 22.0467 17.1732Z" fill="#007BFF"/>
<path fill-rule="evenodd" clip-rule="evenodd" d="M28.133 25.4676C27.4698 21.5895 25.2431 18.3641 22.2049 16.3111C22.1503 16.5974 22.0982 16.885 22.0481 17.1734C20.91 23.7397 20.9634 30.8098 24.4702 35.7857C24.6761 36.0768 24.8934 36.3597 25.1217 36.6338C27.6198 33.6297 28.8411 29.6087 28.133 25.4676Z" fill="white"/>
<path fill-rule="evenodd" clip-rule="evenodd" d="M210.65 21.6645C210.222 21.5874 209.717 21.549 209.211 21.549C207.034 21.549 205.324 22.513 204.079 23.8242V22.32C204.079 22.0504 203.962 21.9345 203.691 21.9345H200.657C200.385 21.9345 200.268 22.0504 200.268 22.32V40.9065C200.268 41.1766 200.385 41.2924 200.657 41.2924H203.691C203.962 41.2924 204.079 41.1766 204.079 40.9065V30.8422C204.079 26.4849 207.617 24.8265 210.573 25.4434C210.845 25.4821 211 25.3663 211 25.0966V22.0887C211 21.8574 210.884 21.7032 210.65 21.6645ZM188.198 38.0529C185.865 38.0529 184.66 36.9734 184.66 35.238C184.66 33.2712 186.487 32.3456 188.742 32.3456C190.764 32.3456 191.931 32.6156 193.72 33.1558C193.72 36.3174 191.192 38.0529 188.198 38.0529ZM189.559 21.549C185.36 21.549 182.754 23.7079 181.705 26.4849C181.589 26.7933 181.783 26.9091 182.016 26.9475L185.165 27.4489C185.398 27.4872 185.515 27.4101 185.631 27.1788C185.943 26.562 186.915 25.0195 189.559 25.0195C192.281 25.0195 193.72 26.6003 193.72 28.9914V29.6853C192.008 29.1839 190.647 28.8755 188.548 28.8755C184.193 28.8755 180.616 31.1119 180.616 35.3922C180.616 39.4795 183.999 41.6775 187.654 41.6775C190.648 41.6775 192.359 40.7907 193.72 39.4795V40.9061C193.72 41.1762 193.836 41.292 194.108 41.292H197.142C197.414 41.292 197.53 41.1762 197.53 40.9061V28.7213C197.53 24.248 194.419 21.549 189.559 21.549ZM166.869 17.7701C170.68 17.7701 173.168 19.5439 174.296 23.4383C174.373 23.7083 174.529 23.8242 174.762 23.8242H177.912C178.223 23.8242 178.34 23.7471 178.34 23.4383C177.601 17.5388 172.974 13.9141 166.869 13.9141C160.726 13.9141 154.894 18.2327 154.894 27.7956C154.894 37.3589 160.726 41.6775 166.869 41.6775C172.974 41.6775 177.601 38.0529 178.34 32.153C178.34 31.8446 178.223 31.7675 177.912 31.7675H174.762C174.529 31.7675 174.373 31.8829 174.296 32.153C173.168 36.0478 170.68 37.8211 166.869 37.8211C162.864 37.8211 159.093 34.6595 159.093 27.7956C159.093 20.9322 162.864 17.7701 166.869 17.7701ZM143.119 38.0529C140.786 38.0529 139.58 36.9734 139.58 35.238C139.58 33.2712 141.408 32.3456 143.662 32.3456C145.685 32.3456 146.852 32.6156 148.64 33.1558C148.64 36.3174 146.113 38.0529 143.119 38.0529ZM144.48 21.549C140.28 21.549 137.675 23.7079 136.625 26.4849C136.509 26.7933 136.703 26.9091 136.936 26.9475L140.085 27.4489C140.319 27.4872 140.436 27.4101 140.552 27.1788C140.864 26.562 141.836 25.0195 144.48 25.0195C147.201 25.0195 148.64 26.6003 148.64 28.9914V29.6853C146.929 29.1839 145.568 28.8755 143.468 28.8755C139.114 28.8755 135.536 31.1119 135.536 35.3922C135.536 39.4795 138.92 41.6775 142.574 41.6775C145.568 41.6775 147.279 40.7907 148.64 39.4795V40.9061C148.64 41.1762 148.757 41.292 149.029 41.292H152.062C152.334 41.292 152.45 41.1762 152.45 40.9061V28.7213C152.45 24.248 149.34 21.549 144.48 21.549ZM132.383 14.2996L129.35 14.801C129.117 14.8394 129 14.9936 129 15.2249V40.9065C129 41.1762 129.117 41.292 129.389 41.292H132.422C132.694 41.292 132.811 41.1762 132.811 40.9061V14.6468C132.811 14.3767 132.617 14.2609 132.383 14.2996ZM117.635 37.4356H111.118V29.0293H117.635C120.356 29.0293 122.223 30.7264 122.223 33.1945C122.223 36.1249 120.356 37.4356 117.635 37.4356ZM111.118 18.1556H115.729C117.673 18.1556 119.423 19.2738 119.423 21.6649C119.423 24.0555 117.673 25.1737 115.729 25.1737H111.118V18.1556ZM121.406 26.0606C121.406 26.0606 123.467 24.7107 123.467 21.2018C123.467 16.6903 119.617 14.2996 115.457 14.2996H107.462C107.19 14.2996 107.074 14.4155 107.074 14.6852V40.9061C107.074 41.1762 107.19 41.292 107.462 41.292H118.101C123.117 41.292 126.266 37.9758 126.266 33.4258C126.266 29.0685 123.467 26.87 121.406 26.0606ZM95.0318 38.0529C92.6997 38.0529 91.4935 36.9734 91.4935 35.238C91.4935 33.2712 93.3217 32.3456 95.5765 32.3456C97.5981 32.3456 98.7648 32.6156 100.553 33.1558C100.553 36.3174 98.0259 38.0529 95.0318 38.0529ZM96.3927 21.549C92.1937 21.549 89.5888 23.7079 88.5389 26.4849C88.4221 26.7933 88.6162 26.9091 88.8491 26.9475L91.9995 27.4489C92.2323 27.4872 92.3492 27.4101 92.466 27.1788C92.777 26.562 93.7491 25.0195 96.3927 25.0195C99.1144 25.0195 100.553 26.6003 100.553 28.9914V29.6853C98.8429 29.1839 97.4821 28.8755 95.3815 28.8755C91.027 28.8755 87.4495 31.1119 87.4495 35.3922C87.4495 39.4795 90.8328 41.6775 94.4871 41.6775C97.4821 41.6775 99.1926 40.7907 100.553 39.4795V40.9061C100.553 41.1762 100.67 41.292 100.943 41.292H103.975C104.247 41.292 104.364 41.1762 104.364 40.9061V28.7213C104.364 24.248 101.254 21.549 96.3927 21.549ZM84.2962 14.2996L81.2634 14.801C81.0302 14.8394 80.9133 14.9936 80.9133 15.2249V40.9065C80.9133 41.1762 81.0302 41.292 81.3025 41.292H84.3357C84.608 41.292 84.724 41.1762 84.724 40.9061V14.6468C84.724 14.3767 84.5299 14.2609 84.2962 14.2996ZM69.5477 37.4356H63.0312V29.0293H69.5477C72.2694 29.0293 74.1359 30.7264 74.1359 33.1945C74.1359 36.1249 72.2694 37.4356 69.5477 37.4356ZM63.0312 18.1556H67.6426C69.5868 18.1556 71.336 19.2738 71.336 21.6649C71.336 24.0555 69.5868 25.1737 67.6426 25.1737H63.0312V18.1556ZM73.3193 26.0606C73.3193 26.0606 75.3799 24.7107 75.3799 21.2018C75.3799 16.6903 71.5306 14.2996 67.3702 14.2996H59.3761C59.1041 14.2996 58.9873 14.4155 58.9873 14.6852V40.9061C58.9873 41.1762 59.1041 41.292 59.3761 41.292H70.0142C75.0303 41.292 78.1798 37.9758 78.1798 33.4258C78.1798 29.0685 75.3799 26.87 73.3193 26.0606Z" fill="#001536"/>
</svg>
