<svg width="381" height="190" viewBox="0 0 381 190" fill="none" xmlns="http://www.w3.org/2000/svg">
<g clip-path="url(#clip0_2009_1565)">
<path d="M310.566 38.188H308.186L315.07 19.441H317.413L324.297 38.188H321.917L316.315 22.4068H316.169L310.566 38.188ZM311.445 30.8649H321.038V32.8788H311.445V30.8649ZM342.083 19.441V38.188H339.886L329.67 23.4687H329.487V38.188H327.217V19.441H329.414L339.666 34.1969H339.849V19.441H342.083ZM362.443 28.8145C362.443 30.7917 362.086 32.5004 361.372 33.9406C360.658 35.3808 359.679 36.4915 358.434 37.2726C357.189 38.0537 355.767 38.4443 354.168 38.4443C352.569 38.4443 351.147 38.0537 349.903 37.2726C348.658 36.4915 347.678 35.3808 346.964 33.9406C346.25 32.5004 345.893 30.7917 345.893 28.8145C345.893 26.8373 346.25 25.1286 346.964 23.6884C347.678 22.2482 348.658 21.1375 349.903 20.3564C351.147 19.5753 352.569 19.1847 354.168 19.1847C355.767 19.1847 357.189 19.5753 358.434 20.3564C359.679 21.1375 360.658 22.2482 361.372 23.6884C362.086 25.1286 362.443 26.8373 362.443 28.8145ZM360.246 28.8145C360.246 27.1912 359.975 25.8212 359.432 24.7044C358.895 23.5877 358.165 22.7425 357.244 22.1688C356.329 21.5952 355.303 21.3084 354.168 21.3084C353.033 21.3084 352.005 21.5952 351.083 22.1688C350.168 22.7425 349.439 23.5877 348.896 24.7044C348.359 25.8212 348.09 27.1912 348.09 28.8145C348.09 30.4378 348.359 31.8078 348.896 32.9246C349.439 34.0413 350.168 34.8865 351.083 35.4602C352.005 36.0338 353.033 36.3206 354.168 36.3206C355.303 36.3206 356.329 36.0338 357.244 35.4602C358.165 34.8865 358.895 34.0413 359.432 32.9246C359.975 31.8078 360.246 30.4378 360.246 28.8145ZM376.513 24.1278C376.403 23.2002 375.957 22.4801 375.176 21.9675C374.395 21.4548 373.437 21.1985 372.302 21.1985C371.472 21.1985 370.746 21.3328 370.123 21.6013C369.507 21.8698 369.025 22.239 368.677 22.7089C368.335 23.1788 368.164 23.7128 368.164 24.3108C368.164 24.8112 368.283 25.2415 368.521 25.6015C368.766 25.9555 369.077 26.2514 369.455 26.4894C369.833 26.7213 370.23 26.9136 370.645 27.0661C371.06 27.2126 371.441 27.3316 371.789 27.4231L373.693 27.9357C374.181 28.0639 374.725 28.2409 375.323 28.4667C375.927 28.6924 376.504 29.0006 377.053 29.3912C377.608 29.7756 378.066 30.27 378.426 30.8741C378.786 31.4783 378.966 32.2197 378.966 33.0985C378.966 34.1115 378.7 35.0269 378.17 35.8446C377.645 36.6624 376.876 37.3123 375.863 37.7944C374.856 38.2765 373.632 38.5175 372.192 38.5175C370.85 38.5175 369.687 38.3009 368.704 37.8676C367.728 37.4343 366.959 36.8302 366.398 36.0552C365.842 35.2801 365.528 34.38 365.455 33.3548H367.798C367.859 34.0627 368.097 34.6485 368.512 35.1123C368.933 35.57 369.464 35.9117 370.105 36.1375C370.752 36.3572 371.448 36.4671 372.192 36.4671C373.059 36.4671 373.837 36.3267 374.526 36.046C375.216 35.7592 375.762 35.3625 376.165 34.856C376.568 34.3434 376.769 33.7453 376.769 33.0619C376.769 32.4394 376.595 31.9329 376.247 31.5423C375.899 31.1518 375.442 30.8344 374.874 30.5903C374.307 30.3462 373.693 30.1326 373.034 29.9496L370.727 29.2905C369.263 28.8694 368.103 28.2683 367.249 27.4872C366.395 26.7061 365.967 25.6839 365.967 24.4207C365.967 23.371 366.251 22.4557 366.819 21.6745C367.392 20.8873 368.161 20.2771 369.126 19.8438C370.096 19.4044 371.179 19.1847 372.375 19.1847C373.583 19.1847 374.657 19.4013 375.597 19.8346C376.537 20.2618 377.282 20.8476 377.831 21.5921C378.386 22.3367 378.679 23.1819 378.71 24.1278H376.513Z" fill="white"/>
<path fill-rule="evenodd" clip-rule="evenodd" d="M290.555 126.294C296.366 99.6735 302.14 73.2135 307.929 46.6915C313.962 46.6915 319.868 46.6915 326.12 46.6915C325.399 50.0615 324.7 53.3225 323.958 56.7735C321.423 56.7735 318.859 56.7735 316.169 56.7735C311.658 77.4325 307.18 97.9375 302.667 118.603C306.557 119.496 310.374 120.403 314.214 121.195C314.655 121.286 315.302 120.792 315.734 120.427C320.081 116.758 324.929 114.173 330.707 113.908C338.786 113.542 345.201 116.868 349.977 123.285C356.479 132.027 356.542 145.684 350.251 154.562C340.494 168.337 320.268 168.36 310.307 154.549C309.338 153.206 308.376 152.673 306.719 152.719C302.345 152.84 297.961 152.759 293.394 152.759C295.221 157.832 297.862 162.22 301.531 165.96C310.239 174.826 320.949 177.972 333.155 177.281C350.663 176.29 363.177 162.689 366.38 151.339C370.661 136.161 369.068 122 357.168 110.55C348.284 102.007 337.504 99.5375 325.525 102.551C323.144 103.151 320.796 103.875 318.135 104.624C318.71 101.978 319.236 99.5005 319.789 97.0255C323.443 80.7135 327.116 64.4105 330.728 48.0915C330.982 46.9535 331.4 46.5805 332.544 46.5835C346.801 46.6115 361.056 46.6055 375.313 46.5925C376.255 46.5895 376.983 46.5835 376.977 47.9015C376.931 58.1425 376.939 68.3895 376.923 78.6305C376.923 78.7425 376.847 78.8575 376.754 79.1095C364.444 79.1095 352.088 79.1095 339.521 79.1095C340.213 75.9165 340.838 72.8015 341.623 69.7275C341.71 69.3855 342.698 69.0895 343.27 69.0865C350.305 69.0435 357.341 69.0555 364.376 69.0555C365.052 69.0555 365.729 69.0555 366.549 69.0555C366.549 65.0265 366.549 61.0565 366.549 56.9525C366.052 56.9215 365.517 56.8595 364.986 56.8595C356.962 56.8535 348.941 56.8845 340.917 56.8255C339.639 56.8165 339.151 57.1365 338.865 58.4575C336.554 69.1485 334.139 79.8125 331.758 90.4885C331.721 90.6565 331.721 90.8305 331.713 90.9025C335.287 91.2695 338.858 91.3935 342.336 92.0275C359.822 95.2165 373.852 108.896 377.372 126.414C380.24 140.685 378.659 154.339 370.075 166.514C361.585 178.558 350.098 185.925 335.209 187.286C317.874 188.875 303.085 183.701 291.685 170.178C285.992 163.425 282.908 155.423 281.149 146.855C280.903 145.652 280.632 144.452 280.393 143.246C280.359 143.078 280.433 142.89 280.49 142.473C281.628 142.473 282.781 142.473 283.931 142.473C293.743 142.48 303.554 142.52 313.366 142.458C314.755 142.448 315.453 142.893 315.997 144.13C317.999 148.691 320.907 152.371 325.893 153.966C334.79 156.814 343.788 150.738 344.506 141.428C344.876 136.6 344.302 132.067 340.915 128.286C336.852 123.744 330.852 122.66 325.706 125.896C323.287 127.419 321.309 129.626 319.07 131.452C318.521 131.899 317.652 132.408 317.063 132.281C308.532 130.437 300.026 128.486 291.517 126.564C291.282 126.513 291.052 126.435 290.555 126.294Z" fill="white"/>
<path fill-rule="evenodd" clip-rule="evenodd" d="M280.47 56.8617C284.545 53.3987 287.471 49.2357 288.496 44.0407C290.392 34.4717 287.657 26.2607 280.721 19.4487C272.995 11.8637 263.597 9.44771 253.047 10.4457C243.74 11.3287 236.086 15.2897 230.072 22.4087C227.127 25.8937 225.252 29.9387 224.028 34.6077C228.482 34.6077 232.765 34.6507 237.049 34.5427C237.559 34.5307 238.157 33.7257 238.525 33.1627C243.706 25.2257 253.101 21.5727 262.219 23.9947C273.574 27.0107 278.442 40.0867 272 50.2707C268.092 56.4517 262.163 59.3267 255.224 60.5517C254.444 60.6887 253.666 60.8437 252.84 61.0027C252.84 61.6247 252.84 62.1437 252.84 62.3207C257.117 61.6797 261.33 60.7007 265.584 60.4767C282.256 59.6057 300.711 69.5177 304.735 88.4697C308.395 105.705 303.425 120.395 290.212 132.121C281.993 139.418 272.216 143.012 261.33 143.947C252.135 144.737 243.187 143.833 234.755 140.014C220.439 133.541 212.104 122.191 208.985 106.976C208.014 102.241 207.748 97.3597 207.127 92.3087C208.108 92.2587 208.696 92.2057 209.28 92.2057C219.343 92.1957 229.401 92.2207 239.462 92.1647C240.836 92.1557 241.28 92.5287 241.588 93.9277C242.394 97.5707 243.068 101.342 244.609 104.69C247.132 110.174 252.878 112.505 259.829 111.617C265.214 110.924 269.948 106.87 271.277 101.653C272.532 96.7217 271.394 92.3887 267.727 88.7817C263.789 84.9147 258.84 83.4317 253.545 82.7627C253.117 82.7097 252.688 82.6817 252.258 82.6317C252.218 82.6257 252.181 82.5537 251.772 82.1187C252.163 81.9007 252.579 81.6927 252.973 81.4437C255.995 79.5537 259.024 77.6667 262.032 75.7547C263.556 74.7817 264.974 74.9927 266.538 75.7607C273.853 79.3607 279.285 84.5777 281.338 92.7297C284.752 106.281 274.744 120.308 260.848 121.716C252.387 122.574 244.941 120.706 238.951 114.398C235.779 111.056 234.011 106.943 232.758 102.501C228.051 102.501 223.385 102.501 218.3 102.501C219.077 105.404 219.569 108.256 220.594 110.898C225.681 123.996 235.23 131.653 249.182 133.5C258.845 134.777 268.315 133.941 276.965 129.017C287.298 123.135 294.053 114.517 295.431 102.449C297.38 85.3347 288.265 73.5827 271.567 70.9617C260.338 69.1987 250.989 73.1937 243.431 81.5637C243.308 81.7007 243.184 81.8317 243.052 81.9587C243.014 81.9927 242.943 81.9927 242.753 82.0427C242.753 71.9477 242.753 61.8847 242.753 51.8397C246.851 51.2827 250.943 50.8627 254.983 50.1387C258.474 49.5107 261.511 47.9347 263.423 44.7197C266.63 39.3347 263.473 33.6427 257.208 33.5247C251.607 33.4157 247.602 36.2917 245.849 41.6797C244.867 44.6987 244.867 44.7017 241.605 44.7017C232.532 44.7017 223.459 44.7017 214.386 44.7017C213.72 44.7017 213.054 44.7017 211.887 44.7017C212.712 40.1497 213.109 35.7167 214.349 31.5327C219.702 13.4917 232.024 3.2137 250.492 0.558697C263.721 -1.3403 275.882 1.5067 286.135 10.5597C295.222 18.5807 299.865 28.6317 299.251 40.8277C298.875 48.3767 296.027 55.0107 291.236 60.5667C287.56 59.3027 284.098 58.1087 280.47 56.8617Z" fill="white"/>
<path d="M102.643 173.532H101.962V179.774H102.613C104.343 179.774 105.823 178.83 105.823 176.653C105.824 174.657 104.507 173.532 102.643 173.532Z" fill="white"/>
<path d="M138.089 173.295H137.808V176.077H138.089C139.034 176.077 140.101 175.9 140.101 174.684C140.101 173.472 139.034 173.295 138.089 173.295Z" fill="white"/>
<path d="M92.3484 174.523L91.1494 178.074H93.5624L92.3774 174.523H92.3484Z" fill="white"/>
<path d="M149.759 174.374C149.759 173.353 148.854 173.295 148.072 173.295H147.865V175.456H148.19C148.96 175.456 149.759 175.323 149.759 174.374Z" fill="white"/>
<path d="M128.142 160.505C128.142 162.38 129.52 163.747 131.207 163.747C132.892 163.747 134.27 162.38 134.27 160.505C134.27 159.01 132.892 157.646 131.207 157.646C129.52 157.646 128.142 159.01 128.142 160.505Z" fill="white"/>
<path d="M19.688 157.427H19.416V160.135H19.688C20.61 160.135 21.645 159.964 21.645 158.777C21.645 157.601 20.61 157.427 19.688 157.427Z" fill="white"/>
<path d="M41.9489 173.52C40.2189 173.52 38.7979 174.925 38.7979 176.461C38.7979 178.385 40.2189 179.79 41.9489 179.79C43.6809 179.79 45.0999 178.385 45.0999 176.461C45.0999 174.925 43.6809 173.52 41.9489 173.52Z" fill="white"/>
<path d="M52.6602 177.614H52.3652V180.01H52.7332C53.5932 180.01 55.0422 180.054 55.0422 178.829C55.0412 177.483 53.6062 177.614 52.6602 177.614Z" fill="white"/>
<path d="M66.127 158.923C66.127 157.559 65.193 157.54 64.1 157.54H63.624V160.248H64.1C65.123 160.248 66.127 160.248 66.127 158.923Z" fill="white"/>
<path d="M148.161 177.614H147.866V180.01H148.236C149.092 180.01 150.543 180.054 150.543 178.829C150.542 177.483 149.107 177.614 148.161 177.614Z" fill="white"/>
<path d="M76.1822 157.646C74.4972 157.646 73.1172 159.01 73.1172 160.505C73.1172 162.38 74.4972 163.747 76.1822 163.747C77.8702 163.747 79.2502 162.38 79.2502 160.505C79.2502 159.01 77.8702 157.646 76.1822 157.646Z" fill="white"/>
<path d="M54.2583 174.374C54.2583 173.353 53.3553 173.295 52.5713 173.295H52.3643V175.456H52.6893C53.4583 175.456 54.2583 175.323 54.2583 174.374Z" fill="white"/>
<path d="M79.9671 173.532H79.2861V179.774H79.9371C81.6671 179.774 83.1471 178.83 83.1471 176.653C83.1471 174.657 81.8301 173.532 79.9671 173.532Z" fill="white"/>
<path d="M184.403 174.523L183.205 178.074H185.615L184.433 174.523H184.403Z" fill="white"/>
<path d="M40.6229 122.878C45.7759 122.878 49.9559 118.705 49.9559 113.551C49.9559 108.394 45.7759 104.215 40.6229 104.215C35.4669 104.215 31.2959 108.394 31.2959 113.551C31.2969 118.705 35.4669 122.878 40.6229 122.878Z" fill="white"/>
<path d="M184.748 157.646C183.066 157.646 181.676 159.01 181.676 160.505C181.676 162.38 183.066 163.747 184.748 163.747C186.429 163.747 187.816 162.38 187.816 160.505C187.816 159.01 186.429 157.646 184.748 157.646Z" fill="white"/>
<path d="M159.816 174.523L158.619 178.074H161.03L159.847 174.523H159.816Z" fill="white"/>
<path d="M31.5231 158.622H31.4961L30.3301 162.079H32.6771L31.5231 158.622Z" fill="white"/>
<path d="M196.988 152.068V54.2314H0.119141V177.816H0.133148V183.098C0.133148 186.99 3.23115 190.142 7.05315 190.142H190.105C193.929 190.142 197.026 186.99 197.026 183.098V152.444C197.026 152.316 196.995 152.195 196.988 152.068ZM144.14 119.651C144.309 122.685 146.653 125.748 151.402 127.032C156.157 128.312 160.667 126.892 161.49 123.87C162.203 121.203 159.836 118.199 156.037 116.633L156.045 116.612C148.876 113.158 144.14 107.266 144.14 100.573C144.14 89.9385 156.064 81.3294 170.78 81.3294C177.31 81.3294 183.281 83.0205 187.915 85.8465V103.906L187.861 103.89C187.235 101.316 184.876 99.0084 181.64 98.1414C177.269 96.9564 172.966 98.8534 172.018 102.382C171.25 105.241 172.952 108.258 175.96 109.93C176.262 110.079 176.539 110.238 176.829 110.387C177.269 110.571 177.726 110.748 178.208 110.878L178.068 111.049C184.074 114.584 187.916 119.963 187.916 125.99C187.916 136.62 175.987 145.241 161.279 145.241C154.747 145.241 148.77 143.537 144.141 140.718V119.651H144.14ZM152.462 159.467V161.861H149.28V163.732H152.633V166.12H146.456V155.264H152.633V157.656H149.28V159.469H152.462V159.467ZM145.131 163.732V166.12H138.925V155.264H141.751V163.733L145.131 163.732ZM78.7451 82.6464H105.191V120.608L105.163 120.44C105.163 122.563 106.885 124.279 109.012 124.279C111.14 124.279 112.864 122.563 112.864 120.44L112.909 120.418V82.6334H139.35V145.8H112.909V139.225C109.355 143.033 103.881 145.887 98.3241 145.887C87.5241 145.887 78.7691 136.933 78.7691 125.884H78.7461L78.7451 82.6464ZM137.208 160.492C137.208 164.012 134.696 166.483 131.207 166.483C127.725 166.483 125.202 164.011 125.202 160.492C125.202 157.216 128.084 154.909 131.207 154.909C134.332 154.909 137.208 157.216 137.208 160.492ZM108.182 159.467V161.861H105V163.732H108.351V166.12H102.174V155.264H108.351V157.656H105V159.469H108.182V159.467ZM92.9292 166.119H89.4181L86.7522 161.95H86.7211V166.119H83.9001V155.263H88.1242C90.2682 155.263 91.8941 156.289 91.8941 158.609C91.8941 160.104 91.0581 161.398 89.5171 161.674L92.9292 166.119ZM8.40414 59.8644H32.9892V82.2954C35.4422 81.7014 37.9892 81.3504 40.6232 81.3504C58.4062 81.3504 72.8251 95.7624 72.8251 113.548C72.8251 131.337 58.4062 145.75 40.6232 145.75C22.8382 145.75 8.41714 131.337 8.41714 113.548C8.41714 113.501 8.43015 113.451 8.43015 113.402H8.40414V59.8644ZM37.1552 166.119H34.1471L33.4411 164.238H29.5521L28.8021 166.119H25.8071L29.9872 155.263H33.0672L37.1552 166.119ZM14.9391 173.532H11.4911V175.397H14.7621V177.853H11.4911V179.774H14.9391V182.23H8.59215V171.079H14.9391V173.532ZM15.1642 157.655H12.8342V166.12H10.0112V157.655H7.67615V155.263H15.1642V157.655ZM19.4162 161.95V166.119H16.5952V155.263H20.8111C22.9571 155.263 24.5831 156.289 24.5831 158.609C24.5831 160.104 23.7502 161.398 22.2092 161.674L25.6181 166.119H22.1071L19.4442 161.95H19.4162ZM32.2171 182.23L31.4032 175.81H31.3741L28.6951 182.23H27.5432L24.9831 175.81H24.9541L24.0231 182.23H21.1382L23.0322 171.079H25.8871L28.1501 177.039L30.5471 171.079H33.4301L35.1171 182.23H32.2171ZM41.9491 182.6C38.3711 182.6 35.7811 180.054 35.7811 176.448C35.7811 173.075 38.7391 170.709 41.9491 170.709C45.1591 170.709 48.1191 173.075 48.1191 176.448C48.1191 180.054 45.5291 182.6 41.9491 182.6ZM49.2831 166.123H46.4601L41.2901 159.467H41.2601V166.123H38.4361V155.263H41.2601L46.4281 161.904H46.4592V155.263H49.2822L49.2831 166.123ZM53.9312 182.23H49.4641V171.079H53.6071C55.5891 171.079 56.9211 171.847 56.9211 173.976C56.9211 174.984 56.5961 175.798 55.6931 176.255V176.282C57.2891 176.491 57.9702 177.569 57.9702 179.124C57.9702 181.462 55.9742 182.23 53.9312 182.23ZM57.9371 165.389C57.0871 166.111 55.9491 166.415 54.8561 166.415C53.4901 166.415 52.1501 165.951 51.0371 165.171L52.2491 162.901C52.9521 163.517 53.7881 164.02 54.7531 164.02C55.4171 164.02 56.1232 163.685 56.1232 162.929C56.1232 162.136 55.0131 161.86 54.4101 161.686C52.6381 161.185 51.4691 160.719 51.4691 158.621C51.4691 156.417 53.0421 154.977 55.2141 154.977C56.3101 154.977 57.6491 155.319 58.6151 155.872L57.4921 158.058C56.9711 157.626 56.3091 157.343 55.6171 157.343C55.1011 157.343 54.4091 157.645 54.4091 158.248C54.4091 158.882 55.1701 159.128 55.6601 159.283L56.3811 159.501C57.8941 159.948 59.0582 160.713 59.0582 162.467C59.0592 163.542 58.8011 164.653 57.9371 165.389ZM62.3781 182.23H59.4791V171.076H62.3781V182.23ZM63.6241 166.119H60.8011V155.263H65.1221C67.4541 155.263 69.0672 156.345 69.0672 158.839C69.0672 161.401 67.6842 162.523 65.2202 162.523H63.6232L63.6241 166.119ZM70.6481 182.23H64.2731V171.079H67.1702V179.774H70.6481V182.23ZM74.4941 182.23H71.5952V171.076H74.4941V182.23ZM70.1751 160.492C70.1751 157.216 73.0572 154.909 76.1812 154.909C79.3042 154.909 82.1841 157.216 82.1841 160.492C82.1841 164.012 79.6662 166.483 76.1812 166.483C72.6972 166.484 70.1751 164.012 70.1751 160.492ZM80.5002 182.23H76.3871V171.079H80.5002C83.6072 171.079 86.1651 173.519 86.1651 176.653C86.1641 179.789 83.5902 182.23 80.5002 182.23ZM95.0701 182.23L94.3441 180.293H90.3512L89.5831 182.23H86.5051L90.7952 171.079H93.9602L98.1622 182.23H95.0701ZM98.4141 166.119H95.5941V157.654H93.2591V155.262H100.747V157.654H98.4141V166.119ZM103.176 182.23H99.0651V171.079H103.176C106.283 171.079 108.841 173.519 108.841 176.653C108.841 179.789 106.268 182.23 103.176 182.23ZM116.534 173.532H113.088V175.397H116.356V177.853H113.088V179.774H116.534V182.23H110.187V171.079H116.534V173.532ZM117.038 164.814C115.844 163.732 115.294 162.324 115.294 160.713C115.294 159.227 115.852 157.8 116.892 156.736C117.958 155.642 119.497 154.977 121.028 154.977C121.934 154.977 122.766 155.178 123.607 155.524V158.91C123.026 158.13 122.096 157.716 121.128 157.716C119.399 157.716 118.232 159.044 118.232 160.72C118.232 162.433 119.413 163.679 121.17 163.679C122.096 163.679 123.012 163.232 123.607 162.523V165.909C122.669 166.198 121.992 166.413 121.114 166.413C119.601 166.412 118.155 165.833 117.038 164.814ZM133.072 177.349C133.072 178.783 133.014 180.203 131.903 181.286C130.972 182.203 129.507 182.526 128.205 182.526C126.904 182.526 125.44 182.203 124.509 181.286C123.399 180.204 123.339 178.783 123.339 177.349V171.078H126.239V176.948C126.239 178.399 126.342 179.982 128.205 179.982C130.07 179.982 130.173 178.399 130.173 176.948V171.078H133.072V177.349ZM140.572 182.23L137.835 177.94H137.807V182.23H134.908V171.079H139.24C141.444 171.079 143.117 172.127 143.117 174.508C143.117 176.047 142.259 177.381 140.677 177.661L144.182 182.23H140.572ZM149.433 182.23H144.965V171.079H149.108C151.09 171.079 152.422 171.847 152.422 173.976C152.422 174.984 152.096 175.798 151.194 176.255V176.282C152.792 176.491 153.471 177.569 153.471 179.124C153.471 181.462 151.473 182.23 149.433 182.23ZM153.945 155.263H161.436V157.655H159.103V166.12H156.279V157.655H153.946V155.263H153.945ZM162.539 182.23L161.815 180.293H157.82L157.05 182.23H153.972L158.264 171.079H161.429L165.631 182.23H162.539ZM165.681 166.119H162.863V155.263H165.681V166.119ZM177.672 182.23H174.773L169.461 175.397H169.432V182.23H166.535V171.079H169.432L174.744 177.897H174.773V171.079H177.672V182.23ZM173.543 166.119H171.353L166.79 155.263H169.86L172.478 161.861L175.111 155.263H178.181L173.543 166.119ZM187.125 182.23L186.4 180.293H182.405L181.636 182.23H178.559L182.85 171.079H186.015L190.217 182.23H187.125ZM184.748 166.484C181.261 166.484 178.739 164.012 178.739 160.493C178.739 157.217 181.622 154.91 184.748 154.91C187.874 154.91 190.753 157.217 190.753 160.493C190.753 164.012 188.231 166.484 184.748 166.484Z" fill="white"/>
<path d="M86.9967 157.427H86.7197V160.135H86.9967C87.9167 160.135 88.9547 159.964 88.9547 158.777C88.9557 157.601 87.9177 157.427 86.9967 157.427Z" fill="white"/>
<path fill-rule="evenodd" clip-rule="evenodd" d="M196.438 12.1736V9.71158C196.438 5.82158 193.348 2.66357 189.535 2.66357H6.90199C3.08999 2.66357 0 5.82258 0 9.71158V40.3616C0 40.5136 0.0339993 40.6536 0.0429993 40.8036V50.8976H196.449V12.1726H196.438V12.1736Z" fill="#F58220"/>
<path d="M27.8086 46.5525H25.6776V15.0465H9.39258V13.0415H44.0966V15.0465H27.8086V46.5525Z" fill="white"/>
<path d="M52.2043 15.0465V27.2205H70.7923V29.2265H52.2043V44.5565H71.1463V46.5525H50.0703V13.0415H71.1463V15.0465H52.2043Z" fill="white"/>
<path d="M103.046 19.8935C100.467 16.7345 95.9386 14.5995 91.8106 14.5995C83.4556 14.5995 76.5626 21.8025 76.5626 30.0195C76.5626 33.9335 78.2496 37.6145 81.0536 40.3785C83.8546 43.0395 87.8526 44.9985 91.8106 44.9985C95.6716 44.9985 100.556 42.9065 103.046 39.8815V42.8195C99.8996 45.4375 96.0246 46.9945 91.8926 46.9945C82.5606 46.9945 74.4326 39.2165 74.4326 29.8465C74.4326 20.3325 82.4286 12.6045 91.9406 12.6045C95.9806 12.6045 100.074 14.2055 103.046 16.9505V19.8935Z" fill="white"/>
<path d="M136.518 27.2675V13.0415H138.647V46.5525H136.518V29.2665H111.084V46.5525H108.955V13.0415H111.084V27.2675H136.518Z" fill="white"/>
<path d="M173.249 47.6615L145.121 17.7575V46.5525H142.986V12.6025L171.118 42.2835V13.0415H173.249V47.6615Z" fill="white"/>
<path d="M182.258 13.0415H180.13V46.5525H182.258V13.0415Z" fill="white"/>
</g>
<defs>
<clipPath id="clip0_2009_1565">
<rect width="381" height="190" fill="white"/>
</clipPath>
</defs>
</svg>
