<svg width="113" height="68" viewBox="0 0 113 68" fill="none" xmlns="http://www.w3.org/2000/svg">
<path d="M112.974 6.08833C112.974 2.72502 110.107 0 106.569 0H6.40548C2.86697 0 0 2.72502 0 6.08833V47.4546H112.974" fill="#1C4F78"/>
<path d="M112.974 47.4277H0V61.4455V61.9365C0 65.2752 2.86697 68.0002 6.40549 68.0002H106.595C110.133 68.0002 113 65.2752 113 61.9365V61.4455V53.5897C113 53.4424 113 53.2951 112.974 53.1478V47.4277Z" fill="#F48120"/>
<path d="M84.8193 63.906H83.8636L79.5244 57.9407H79.1111V63.906H78.2588V51.3125H79.9118C80.9708 51.3125 82.0298 51.3371 82.9338 51.9508C83.8894 52.589 84.2769 53.5955 84.2769 54.6511C84.2769 56.836 82.6755 57.9652 80.4801 57.9407L84.8193 63.906ZM80.1701 57.1796C80.9966 57.1796 81.8231 57.1551 82.4947 56.5905C83.1146 56.0995 83.4245 55.363 83.4245 54.602C83.4245 53.6692 82.9596 52.7363 82.0298 52.3435C81.3324 52.0244 80.4284 52.049 79.6535 52.049H79.1111V57.1796H80.1701Z" fill="white"/>
<path d="M51.2924 63.906H50.44V52.0735H47.0049V51.3125H54.7017V52.0735H51.2665V63.906H51.2924Z" fill="white"/>
<path d="M41.997 63.906H41.1445V51.3125H41.997V63.906Z" fill="white"/>
<path d="M26.1855 51.3125H28.5618C30.4989 51.3125 32.0228 51.6071 33.4692 52.9082C34.864 54.1356 35.5872 55.8295 35.5872 57.6215C35.5872 59.3645 34.8898 61.0093 33.5467 62.2367C32.1003 63.5623 30.5248 63.906 28.5618 63.906H26.1855V51.3125ZM28.5618 63.145C30.2923 63.145 31.7387 62.8013 33.0043 61.623C34.1408 60.5428 34.7606 59.119 34.7606 57.6215C34.7606 56.0259 34.0891 54.5284 32.8493 53.4237C31.5837 52.3435 30.2148 52.049 28.5618 52.049H27.0379V63.1204H28.5618V63.145Z" fill="white"/>
<path d="M14.618 52.0736V56.64H19.9644V57.4011H14.618V63.1705H20.0936V63.9315H13.7656V51.3125H20.0936V52.0736H14.618Z" fill="white"/>
<path d="M72.7114 57.595C72.7114 61.1303 69.5604 64.0519 65.8411 64.0519C62.1218 64.0519 58.9707 61.1303 58.9707 57.595C58.9707 54.0597 62.0959 51.1382 65.8411 51.1382C69.5604 51.1382 72.7114 54.0597 72.7114 57.595ZM59.823 57.595C59.823 60.6884 62.535 63.2908 65.8411 63.2908C69.1213 63.2908 71.8591 60.6639 71.8591 57.595C71.8591 54.5016 69.1213 51.8993 65.8411 51.8993C62.535 51.8993 59.823 54.5016 59.823 57.595Z" fill="white"/>
<path d="M91.6384 59.7534L89.8562 63.9025H89.0039L94.557 50.8906L100.084 63.9025H99.232L97.4498 59.7534H91.6384ZM94.557 52.9283L91.9484 58.9924H97.1399L94.557 52.9283Z" fill="white"/>
<path d="M101.74 7.537H88.9804L85.1061 20.4008C84.6929 21.8001 84.4604 23.3222 84.2279 24.746H83.918L79.1656 7.537H66.2771L65.0632 14.6563V7.537H38.7697V13.9443C35.3604 9.2309 29.6523 6.1377 23.1951 6.1377C12.7604 6.1377 4.31445 14.1653 4.31445 24.0832C4.31445 34.0011 12.7604 42.0287 23.1951 42.0287C33.6298 42.0287 42.0758 34.0011 42.0758 24.0832C42.0758 21.9965 41.6883 19.9835 40.991 18.0932L45.6659 17.8968V40.3102H58.1928V17.8722L64.4949 18.1423L60.724 40.2857H72.8376L74.3098 26.2926C74.4389 24.9915 74.5422 23.6413 74.6197 22.3402H75.033C75.1363 23.7395 75.4462 25.0406 75.8078 26.4154L80.2762 40.2611H87.5857L92.5706 25.5807C92.9322 24.5496 93.1646 23.4204 93.3971 22.3156H93.6295L95.3084 40.2611H107.422L101.74 7.537Z" fill="white"/>
<path d="M38.3316 21.9023C38.3316 21.9023 29.6016 19.5209 24.9008 24.1855C25.3915 23.0807 25.8564 21.9759 26.218 20.9448C26.218 20.9448 29.2658 14.0708 20.9748 14.0708H13.717L8.06055 27.3033L16.1707 27.4261C16.1707 27.4261 23.0411 27.7207 20.6649 32.3361H20.7165C20.7165 32.3361 20.7165 32.3361 20.7165 32.3116C21.3881 32.1643 29.6016 30.5439 33.0368 32.3116C33.1918 32.3852 38.4091 21.9514 38.4091 21.9514L38.3316 21.9023Z" fill="#F48120"/>
</svg>
