<svg width="115" height="64" viewBox="0 0 115 64" fill="none" xmlns="http://www.w3.org/2000/svg">
<path d="M66.6494 53.7598C67.3762 53.7598 68.0403 53.8859 68.6406 54.1377C69.2409 54.3895 69.7548 54.7427 70.1826 55.1973C70.6104 55.6519 70.9422 56.192 71.1768 56.8203C71.4112 57.4473 71.5283 58.135 71.5283 58.8867C71.5283 59.6373 71.4113 60.3262 71.1768 60.9521C70.9422 61.5805 70.6104 62.1209 70.1826 62.5732C69.7549 63.0254 69.2407 63.3758 68.6406 63.624C68.0403 63.8747 67.3762 64 66.6494 64C65.9229 63.9999 65.2609 63.8745 64.6631 63.624C64.0652 63.3758 63.5518 63.0254 63.124 62.5732C62.6962 62.1209 62.3645 61.5805 62.1299 60.9521C61.8954 60.3263 61.7783 59.6373 61.7783 58.8867C61.7783 58.135 61.8954 57.4473 62.1299 56.8203C62.3645 56.192 62.6962 55.6519 63.124 55.1973C63.5518 54.7426 64.0651 54.3895 64.6631 54.1377C65.2609 53.886 65.9229 53.7598 66.6494 53.7598ZM24.5244 54.9756H19.7773V58.3066H23.6201V59.3691H19.7773V62.7881H24.5244V63.8945H18.4316V53.8721H24.5244V54.9756ZM33.5986 53.8721C34.325 53.8721 34.9872 53.9915 35.585 54.2314C36.1829 54.4716 36.6962 54.8123 37.124 55.2529C37.5518 55.6935 37.8836 56.2215 38.1182 56.8369C38.3528 57.4524 38.4697 58.1348 38.4697 58.8867C38.4697 59.6375 38.3528 60.3198 38.1182 60.9365C37.8836 61.5519 37.5517 62.0783 37.124 62.5166C36.6962 62.9549 36.183 63.294 35.585 63.5342C34.9871 63.7742 34.3252 63.8945 33.5986 63.8945H29.8994V53.8721H33.5986ZM45.3281 63.8945H43.9902V53.8721H45.3281V63.8945ZM58.1631 55.0117H54.9678V63.8945H53.6289V55.0117H50.4209V53.8721H58.1631V55.0117ZM79.7393 53.8721C80.3649 53.8721 80.9059 53.9362 81.3613 54.0645C81.8166 54.1915 82.1926 54.3777 82.4893 54.6201C82.7859 54.8626 83.0058 55.1555 83.1484 55.4971C83.2909 55.8397 83.3623 56.2243 83.3623 56.6484C83.3623 57.0017 83.3067 57.334 83.1963 57.6406C83.0859 57.9495 82.9261 58.2249 82.7168 58.4697C82.5075 58.7144 82.2524 58.9244 81.9512 59.0957C81.65 59.2693 81.3084 59.3999 80.9268 59.4873C81.0922 59.5852 81.2395 59.7275 81.3682 59.915L84.252 63.8945H83.0654C82.8216 63.8945 82.6423 63.7988 82.5273 63.6064L79.96 60.0254C79.8818 59.9148 79.797 59.8331 79.7051 59.7842C79.6131 59.7352 79.475 59.7119 79.291 59.7119H78.2764V63.8945H76.9453V53.8721H79.7393ZM97.2793 63.8945H96.2441C96.1248 63.8944 96.0286 63.8642 95.9551 63.8037C95.8815 63.7443 95.8259 63.6665 95.7891 63.5732L94.8643 61.1543H90.4277L89.5029 63.5732C89.4707 63.657 89.4159 63.7328 89.3379 63.7969C89.2597 63.8621 89.1628 63.8945 89.0479 63.8945H88.0127L91.9668 53.873H93.3262L97.2793 63.8945ZM66.6494 54.9346C66.1206 54.9346 65.6403 55.0251 65.208 55.208C64.7757 55.3898 64.4064 55.6494 64.1006 55.9873C63.7947 56.3254 63.5582 56.7399 63.3926 57.2295C63.2271 57.719 63.1445 58.2714 63.1445 58.8867C63.1445 59.5022 63.227 60.0538 63.3926 60.541C63.5582 61.0283 63.7947 61.4414 64.1006 61.7783C64.4064 62.1173 64.7758 62.3764 65.208 62.5547C65.6402 62.7352 66.1207 62.8242 66.6494 62.8242C67.1829 62.8242 67.6663 62.7353 68.0986 62.5547C68.531 62.3764 68.8995 62.1175 69.2031 61.7783C69.5067 61.4414 69.7416 61.0283 69.9072 60.541C70.0728 60.0538 70.1553 59.5022 70.1553 58.8867C70.1553 58.2714 70.0727 57.719 69.9072 57.2295C69.7416 56.7399 69.5067 56.3254 69.2031 55.9873C68.8995 55.6492 68.531 55.3899 68.0986 55.208C67.6662 55.025 67.183 54.9346 66.6494 54.9346ZM31.2451 62.7969H33.5986C34.1273 62.7968 34.6078 62.7083 35.04 62.5312C35.4724 62.3541 35.8409 62.0981 36.1445 61.7646C36.448 61.4313 36.6821 61.0219 36.8477 60.5371C37.0132 60.0522 37.0967 59.5022 37.0967 58.8867C37.0967 58.2713 37.0132 57.7212 36.8477 57.2363C36.6821 56.7514 36.4481 56.3394 36.1445 56.0049C35.8409 55.6691 35.4724 55.4125 35.04 55.2354C34.6078 55.0583 34.1273 54.9698 33.5986 54.9697H31.2451V62.7969ZM92.4941 55.6807C92.4458 55.8404 92.3985 55.9821 92.3525 56.1045L90.8008 60.1738H94.4922L92.9395 56.0957C92.8383 55.8439 92.7392 55.5301 92.6426 55.1514C92.592 55.3425 92.5424 55.5198 92.4941 55.6807ZM78.2764 58.7256H79.6777C80.0686 58.7256 80.4124 58.6776 80.709 58.582C81.0056 58.4865 81.2541 58.3517 81.4541 58.1758C81.6542 58.0021 81.805 57.7922 81.9062 57.5498C82.0075 57.3073 82.0576 57.0399 82.0576 56.7461C82.0575 56.1494 81.8632 55.6984 81.4746 55.3965C81.0859 55.0935 80.5074 54.9414 79.7393 54.9414H78.2764V58.7256Z" fill="white"/>
<path d="M69.0068 12.9629L59.6904 12.5781V41.4717H46.6914V12.5781L39.8438 12.8604C40.8422 15.2905 41.3945 17.9515 41.3945 20.7422C41.3945 32.1915 32.1279 41.4717 20.6963 41.4717C9.26588 41.4717 0 32.1915 0 20.7422C7.7135e-05 9.29405 9.26593 0.0127138 20.6963 0.0126953C27.5398 0.0126953 33.6068 3.33962 37.375 8.46582V0H69.0068V12.9629ZM90.0225 21.7812L95.5498 0H109.441L114.688 41.4717H101.909L100.066 20.2959L94.0059 41.4717H86.0391L80.3779 20.2959L78.4365 41.4717H65.6572L70.8037 0H84.8438L90.0225 21.7812ZM10.3262 7.67969L2.04785 28.0762C2.04785 28.0762 9.23076 28.208 9.85352 28.2734C10.4784 28.3389 19.945 28.7349 16.5479 35.8125C17.5764 35.0339 26.5106 34.5522 33.5908 35.8281C33.849 35.8749 40.9234 19.9476 40.96 19.8652C40.96 19.8652 25.1487 17.7461 22.666 23.2754C22.6694 23.2671 24.0782 19.8526 24.6123 18.2744C24.6325 18.2266 29.0687 7.6798 16.9316 7.67969H10.3262Z" fill="white"/>
</svg>
