<svg width="377" height="190" viewBox="0 0 377 190" fill="none" xmlns="http://www.w3.org/2000/svg">
<path d="M312.397 20.4351H316.524L323.369 38.7381H319.19L317.806 34.6621H310.961L309.525 38.7381H305.449L312.397 20.4351ZM312.012 31.6631H316.755L314.447 24.9471H314.395L312.012 31.6631Z" fill="#7B7C7F"/>
<path d="M324.312 20.4351H328.311L335.952 32.7141H336.003V20.4351H339.771V38.7381H335.747L328.134 26.4851H328.083V38.7381H324.314V20.4351H324.312Z" fill="#7B7C7F"/>
<path d="M350.865 19.999C356.531 19.999 359.863 24.229 359.863 29.664C359.863 34.945 356.531 39.174 350.865 39.174C345.2 39.174 341.867 34.945 341.867 29.664C341.867 24.229 345.2 19.999 350.865 19.999ZM350.865 35.79C354.48 35.79 355.839 32.714 355.839 29.664C355.839 26.459 354.481 23.383 350.865 23.383C347.251 23.383 345.892 26.459 345.892 29.664C345.892 32.714 347.25 35.79 350.865 35.79Z" fill="#7B7C7F"/>
<path d="M364.702 32.663C364.702 35.098 366.598 36.047 368.753 36.047C370.162 36.047 372.316 35.637 372.316 33.765C372.316 31.791 369.574 31.458 366.881 30.74C364.164 30.022 361.421 28.971 361.421 25.536C361.421 21.794 364.958 19.999 368.266 19.999C372.085 19.999 375.597 21.666 375.597 25.895H371.701C371.573 23.69 370.01 23.126 368.087 23.126C366.805 23.126 365.318 23.664 365.318 25.202C365.318 26.612 366.189 26.791 370.778 27.971C372.111 28.304 376.213 29.15 376.213 33.303C376.213 36.661 373.572 39.173 368.6 39.173C364.549 39.173 360.756 37.174 360.807 32.662H364.702V32.663Z" fill="#7B7C7F"/>
<path fill-rule="evenodd" clip-rule="evenodd" d="M288.754 125.563C294.531 99.0969 300.273 72.7889 306.027 46.4199C312.025 46.4199 317.898 46.4199 324.114 46.4199C323.397 49.7709 322.701 53.0149 321.964 56.4449C319.443 56.4449 316.896 56.4449 314.22 56.4449C309.736 76.9829 305.282 97.3719 300.796 117.917C304.663 118.803 308.459 119.707 312.275 120.495C312.714 120.585 313.357 120.094 313.787 119.73C318.108 116.083 322.929 113.512 328.673 113.25C336.705 112.884 343.083 116.191 347.831 122.571C354.296 131.263 354.358 144.841 348.104 153.669C338.403 167.364 318.293 167.388 308.39 153.656C307.427 152.321 306.47 151.789 304.823 151.836C300.474 151.958 296.116 151.878 291.576 151.878C293.391 156.92 296.017 161.281 299.665 165C308.322 173.815 318.971 176.943 331.105 176.259C348.512 175.273 360.955 161.75 364.138 150.463C368.394 135.375 366.81 121.294 354.98 109.912C346.147 101.417 335.429 98.962 323.52 101.959C321.153 102.556 318.819 103.274 316.173 104.02C316.744 101.391 317.267 98.9249 317.817 96.4649C321.451 80.2479 325.103 64.04 328.695 47.814C328.946 46.683 329.362 46.3139 330.5 46.3149C344.675 46.3429 358.847 46.3359 373.021 46.3239C373.958 46.3229 374.681 46.3159 374.675 47.6249C374.63 57.8079 374.638 67.9939 374.622 78.1769C374.622 78.2869 374.546 78.4009 374.453 78.6529C362.215 78.6529 349.93 78.6529 337.434 78.6529C338.123 75.4769 338.745 72.3799 339.524 69.3239C339.611 68.9839 340.593 68.6889 341.163 68.6859C348.157 68.6429 355.152 68.6569 362.146 68.6569C362.819 68.6569 363.491 68.6569 364.307 68.6569C364.307 64.6499 364.307 60.7019 364.307 56.6239C363.812 56.5909 363.281 56.5299 362.752 56.5299C354.774 56.5239 346.8 56.554 338.822 56.497C337.551 56.488 337.066 56.805 336.782 58.12C334.485 68.748 332.084 79.3519 329.716 89.9659C329.679 90.1329 329.679 90.3059 329.671 90.3769C333.225 90.7399 336.775 90.864 340.233 91.494C357.619 94.665 371.566 108.267 375.067 125.684C377.918 139.871 376.346 153.446 367.812 165.549C359.371 177.526 347.952 184.849 333.147 186.204C315.913 187.782 301.209 182.641 289.875 169.195C284.216 162.481 281.149 154.523 279.399 146.005C279.155 144.809 278.886 143.616 278.648 142.418C278.614 142.251 278.688 142.063 278.744 141.648C279.876 141.648 281.022 141.648 282.166 141.648C291.921 141.654 301.676 141.695 311.431 141.631C312.812 141.623 313.505 142.065 314.046 143.294C316.036 147.828 318.928 151.489 323.885 153.075C332.731 155.904 341.676 149.865 342.39 140.609C342.758 135.808 342.188 131.3 338.82 127.542C334.781 123.028 328.815 121.949 323.7 125.167C321.295 126.68 319.328 128.876 317.102 130.688C316.556 131.133 315.692 131.64 315.107 131.515C306.626 129.68 298.169 127.741 289.709 125.83C289.478 125.779 289.248 125.702 288.754 125.563Z" fill="#0F3F76"/>
<path fill-rule="evenodd" clip-rule="evenodd" d="M278.728 56.5297C282.781 53.0877 285.689 48.9467 286.709 43.7827C288.594 34.2687 285.874 26.1057 278.979 19.3337C271.297 11.7917 261.954 9.39169 251.464 10.3817C242.212 11.2597 234.602 15.1977 228.622 22.2757C225.693 25.7417 223.83 29.7617 222.613 34.4047C227.041 34.4047 231.301 34.4497 235.559 34.3397C236.066 34.3277 236.662 33.5267 237.026 32.9667C242.177 25.0767 251.518 21.4457 260.584 23.8517C271.874 26.8507 276.713 39.8507 270.309 49.9767C266.423 56.1217 260.529 58.9807 253.63 60.1987C252.854 60.3357 252.081 60.4907 251.259 60.6467C251.259 61.2647 251.259 61.7827 251.259 61.9597C255.512 61.3227 259.7 60.3477 263.93 60.1257C280.505 59.2597 298.853 69.1157 302.855 87.9567C306.495 105.093 301.553 119.7 288.416 131.358C280.245 138.611 270.524 142.184 259.701 143.116C250.559 143.901 241.664 143.001 233.28 139.207C219.046 132.771 210.759 121.486 207.659 106.359C206.694 101.65 206.429 96.7967 205.812 91.7747C206.787 91.7267 207.372 91.6737 207.953 91.6737C217.956 91.6627 227.957 91.6897 237.96 91.6317C239.325 91.6237 239.768 91.9947 240.073 93.3857C240.874 97.0067 241.545 100.758 243.076 104.085C245.585 109.537 251.297 111.857 258.208 110.972C263.562 110.284 268.27 106.252 269.591 101.066C270.838 96.1637 269.706 91.8547 266.061 88.2707C262.147 84.4237 257.226 82.9497 251.961 82.2857C251.536 82.2327 251.108 82.2047 250.682 82.1557C250.642 82.1497 250.605 82.0787 250.199 81.6477C250.587 81.4317 251.001 81.2237 251.393 80.9767C254.398 79.0977 257.408 77.2217 260.399 75.3187C261.915 74.3527 263.324 74.5617 264.878 75.3257C272.151 78.9037 277.551 84.0907 279.593 92.1947C282.987 105.669 273.037 119.614 259.221 121.014C250.809 121.868 243.406 120.01 237.45 113.739C234.298 110.418 232.539 106.327 231.293 101.91C226.613 101.91 221.975 101.91 216.919 101.91C217.691 104.799 218.18 107.633 219.2 110.26C224.257 123.282 233.751 130.894 247.623 132.732C257.229 134.003 266.644 133.17 275.245 128.275C285.517 122.426 292.234 113.859 293.603 101.86C295.541 84.8417 286.478 73.1587 269.876 70.5547C258.712 68.8017 249.418 72.7717 241.903 81.0947C241.781 81.2287 241.658 81.3607 241.526 81.4857C241.489 81.5197 241.418 81.5197 241.229 81.5707C241.229 71.5327 241.229 61.5287 241.229 51.5407C245.303 50.9887 249.373 50.5717 253.389 49.8507C256.86 49.2257 259.879 47.6607 261.781 44.4627C264.969 39.1087 261.831 33.4517 255.602 33.3337C250.034 33.2257 246.051 36.0847 244.308 41.4407C243.33 44.4417 243.33 44.4437 240.088 44.4437C231.067 44.4437 222.047 44.4437 213.027 44.4437C212.364 44.4437 211.703 44.4437 210.542 44.4437C211.362 39.9187 211.757 35.5107 212.99 31.3507C218.31 13.4157 230.561 3.19669 248.924 0.555689C262.075 -1.33331 274.166 1.4997 284.36 10.5007C293.395 18.4757 298.011 28.4667 297.401 40.5927C297.027 48.0967 294.196 54.6947 289.432 60.2177C285.779 58.9577 282.335 57.7707 278.728 56.5297Z" fill="#0F3F76"/>
<path fill-rule="evenodd" clip-rule="evenodd" d="M195.731 151.187V53.9155H0V176.788H0.0139923V182.038C0.0139923 185.908 3.09499 189.044 6.89499 189.044H188.887C192.689 189.044 195.768 185.908 195.768 182.038V151.563C195.768 151.434 195.737 151.314 195.731 151.187Z" fill="#0F3F76"/>
<path fill-rule="evenodd" clip-rule="evenodd" d="M195.406 11.2386V8.79063C195.406 4.92363 192.334 1.78564 188.542 1.78564H6.96454C3.17454 1.78564 0.102539 4.92463 0.102539 8.79063V39.2656C0.102539 39.4156 0.136538 39.5566 0.145538 39.7036V49.7406H195.415V11.2386H195.406Z" fill="#F58220"/>
<path d="M27.7524 45.4176H25.6334V14.0956H9.44336V12.1006H43.9454V14.0956H27.7524V45.4176Z" fill="#0F3F76"/>
<path d="M52.0068 14.0956V26.1986H70.4878V28.1926H52.0068V43.4336H70.8398V45.4196H49.8848V12.1006H70.8398V14.0956H52.0068Z" fill="#0F3F76"/>
<path d="M102.554 18.9135C99.9904 15.7745 95.4894 13.6495 91.3844 13.6495C83.0774 13.6495 76.2244 20.8135 76.2244 28.9825C76.2244 32.8745 77.9014 36.5325 80.6894 39.2805C83.4744 41.9265 87.4494 43.8745 91.3844 43.8745C95.2234 43.8745 100.079 41.7945 102.554 38.7875V41.7085C99.4264 44.3115 95.5744 45.8595 91.4664 45.8595C82.1894 45.8595 74.1074 38.1245 74.1074 28.8085C74.1074 19.3505 82.0574 11.6655 91.5144 11.6655C95.5314 11.6655 99.6004 13.2595 102.555 15.9865V18.9135H102.554Z" fill="#0F3F76"/>
<path d="M135.833 26.2466V12.1006H137.949V45.4176H135.833V28.2326H110.546V45.4176H108.429V12.1006H110.546V26.2466H135.833Z" fill="#0F3F76"/>
<path d="M172.352 46.5215L144.388 16.7915V45.4175H142.264V11.6646L170.234 41.1735V12.1005H172.352V46.5215Z" fill="#0F3F76"/>
<path d="M181.308 12.1006H179.192V45.4176H181.308V12.1006Z" fill="#0F3F76"/>
<path d="M40.2703 80.8786C37.6503 80.8786 35.1193 81.2266 32.6803 81.8166V59.5156H8.2373V112.746H8.26329C8.26329 112.796 8.2513 112.845 8.2513 112.89C8.2513 130.577 22.5883 144.907 40.2703 144.907C57.9503 144.907 72.2863 130.577 72.2863 112.89C72.2863 95.2076 57.9503 80.8786 40.2703 80.8786ZM40.2703 122.167C35.1443 122.167 30.9983 118.02 30.9983 112.895C30.9983 107.766 35.1443 103.612 40.2703 103.612C45.3943 103.612 49.5493 107.766 49.5493 112.895C49.5493 118.02 45.3933 122.167 40.2703 122.167Z" fill="white"/>
<path d="M112.153 138.403C108.62 142.199 103.169 145.043 97.6359 145.043C86.8979 145.043 78.1939 136.141 78.1939 125.156H78.1709V82.1687H104.464V119.91L104.436 119.745C104.436 121.854 106.149 123.56 108.263 123.56C110.379 123.56 112.093 121.854 112.093 119.745L112.138 119.722V82.1567H138.427V144.957H112.138V138.289L112.153 138.403Z" fill="white"/>
<path d="M180.47 97.5705C183.687 98.4325 186.032 100.727 186.655 103.287L186.709 103.301V85.3465C182.102 82.5385 176.166 80.8555 169.673 80.8555C155.042 80.8555 143.187 89.4165 143.187 99.9885C143.187 106.643 147.896 112.501 155.024 115.934L155.016 115.957C158.793 117.515 161.147 120.5 160.438 123.151C159.619 126.155 155.135 127.569 150.408 126.294C145.686 125.02 143.356 121.975 143.187 118.957V139.902C147.79 142.704 153.732 144.398 160.226 144.398C174.849 144.398 186.709 135.828 186.709 125.26C186.709 119.265 182.89 113.917 176.918 110.405L177.057 110.235C176.578 110.105 176.123 109.929 175.686 109.745C175.397 109.598 175.122 109.441 174.822 109.293C171.832 107.63 170.139 104.63 170.903 101.788C171.846 98.2795 176.124 96.3955 180.47 97.5705Z" fill="white"/>
<path d="M12.6417 165.159H9.83467V156.741H7.51367V154.365H14.9577V156.741H12.6417V165.159Z" fill="white"/>
<path d="M19.1849 156.516H19.4559C20.3719 156.516 21.4009 156.691 21.4009 157.859C21.4009 159.039 20.3719 159.209 19.4559 159.209H19.1849V156.516ZM21.9619 160.737C23.4939 160.464 24.3219 159.178 24.3219 157.69C24.3219 155.383 22.7049 154.365 20.5709 154.365H16.3799V165.159H19.1849V161.014H19.2129L21.8599 165.159H25.3509L21.9619 160.737Z" fill="white"/>
<path d="M32.369 161.141H30.036L31.195 157.704H31.223L32.369 161.141ZM33.13 163.288L33.832 165.159H36.823L32.759 154.365H29.697L25.541 165.159H28.519L29.264 163.288H33.13Z" fill="white"/>
<path d="M38.0957 154.365H40.9037L46.0417 160.967H46.0727V154.365H48.8797V165.161H46.0727L40.9327 158.545H40.9037V165.161H38.0957V154.365Z" fill="white"/>
<path d="M57.0411 157.145C56.5231 156.713 55.8651 156.432 55.1771 156.432C54.6641 156.432 53.9761 156.732 53.9761 157.333C53.9761 157.962 54.7331 158.206 55.2201 158.362L55.9371 158.577C57.4411 159.022 58.5981 159.782 58.5981 161.525C58.5981 162.596 58.3421 163.7 57.4821 164.431C56.6371 165.149 55.5051 165.451 54.4191 165.451C53.0611 165.451 51.7291 164.991 50.6221 164.217L51.8281 161.959C52.5271 162.572 53.3581 163.071 54.3181 163.071C54.9781 163.071 55.6801 162.737 55.6801 161.986C55.6801 161.198 54.5761 160.924 53.9771 160.75C52.2151 160.254 51.0531 159.789 51.0531 157.704C51.0531 155.511 52.6171 154.08 54.7761 154.08C55.8651 154.08 57.1961 154.421 58.1571 154.972L57.0411 157.145Z" fill="white"/>
<path d="M63.138 156.628H63.611C64.697 156.628 65.626 156.647 65.626 158.004C65.626 159.319 64.628 159.319 63.611 159.319H63.138V156.628ZM60.332 165.159H63.138V161.581H64.725C67.175 161.581 68.55 160.466 68.55 157.92C68.55 155.441 66.946 154.365 64.628 154.365H60.332V165.159Z" fill="white"/>
<path d="M75.6224 156.732C77.3014 156.732 78.6734 158.089 78.6734 159.578C78.6734 161.441 77.3014 162.8 75.6224 162.8C73.9474 162.8 72.5754 161.442 72.5754 159.578C72.5754 158.089 73.9474 156.732 75.6224 156.732ZM75.6224 154.014C72.5164 154.014 69.6504 156.306 69.6504 159.564C69.6504 163.062 72.1574 165.521 75.6224 165.521C79.0874 165.521 81.5914 163.062 81.5914 159.564C81.5914 156.306 78.7274 154.014 75.6224 154.014Z" fill="white"/>
<path d="M86.1009 156.516H86.3759C87.2909 156.516 88.3229 156.691 88.3229 157.859C88.3229 159.039 87.2909 159.209 86.3759 159.209H86.1009V156.516ZM88.8789 160.737C90.4109 160.464 91.2419 159.178 91.2419 157.69C91.2419 155.383 89.6249 154.365 87.4939 154.365H83.2949V165.159H86.0999V161.014H86.1309L88.7809 165.159H92.2719L88.8789 160.737Z" fill="white"/>
<path d="M97.7256 165.159H94.9216V156.741H92.6006V154.365H100.045V156.741H97.7256V165.159Z" fill="white"/>
<path d="M104.274 156.741V158.545H107.437V160.925H104.274V162.784H107.606V165.159H101.464V154.365H107.606V156.741H104.274Z" fill="white"/>
<path d="M122.773 157.99C122.195 157.216 121.271 156.802 120.308 156.802C118.59 156.802 117.429 158.122 117.429 159.788C117.429 161.492 118.603 162.731 120.35 162.731C121.271 162.731 122.181 162.287 122.773 161.58V164.948C121.839 165.235 121.167 165.449 120.294 165.449C118.79 165.449 117.353 164.874 116.242 163.858C115.055 162.784 114.508 161.383 114.508 159.783C114.508 158.304 115.063 156.886 116.096 155.83C117.157 154.74 118.686 154.079 120.209 154.079C121.11 154.079 121.937 154.279 122.773 154.623V157.99Z" fill="white"/>
<path d="M130.329 156.732C132.004 156.732 133.375 158.089 133.375 159.578C133.375 161.441 132.004 162.8 130.329 162.8C128.652 162.8 127.281 161.442 127.281 159.578C127.281 158.089 128.652 156.732 130.329 156.732ZM130.329 154.014C127.224 154.014 124.359 156.306 124.359 159.564C124.359 163.062 126.867 165.521 130.329 165.521C133.798 165.521 136.296 163.062 136.296 159.564C136.296 156.306 133.437 154.014 130.329 154.014Z" fill="white"/>
<path d="M140.813 162.784H144.173V165.159H138.004V154.365H140.813V162.784Z" fill="white"/>
<path d="M148.298 156.741V158.545H151.461V160.925H148.298V162.784H151.632V165.159H145.49V154.365H151.632V156.741H148.298Z" fill="white"/>
<path d="M158.064 165.159H155.256V156.741H152.936V154.365H160.384V156.741H158.064V165.159Z" fill="white"/>
<path d="M164.604 154.365H161.802V165.159H164.604V154.365Z" fill="white"/>
<path d="M171.363 160.925L173.98 154.365H177.033L172.421 165.159H170.243L165.707 154.365H168.76L171.363 160.925Z" fill="white"/>
<path d="M183.561 156.732C185.231 156.732 186.612 158.089 186.612 159.578C186.612 161.441 185.232 162.8 183.561 162.8C181.889 162.8 180.507 161.442 180.507 159.578C180.507 158.089 181.888 156.732 183.561 156.732ZM183.561 154.014C180.453 154.014 177.586 156.306 177.586 159.564C177.586 163.062 180.094 165.521 183.561 165.521C187.024 165.521 189.531 163.062 189.531 159.564C189.531 156.306 186.669 154.014 183.561 154.014Z" fill="white"/>
<path d="M11.3058 172.529V174.381H14.5578V176.823H11.3058V178.735H14.7338V181.177H8.42383V170.088H14.7338V172.529H11.3058Z" fill="white"/>
<path d="M22.7795 170.088H25.6185L27.8685 176.013L30.2515 170.088H33.1185L34.7945 181.177H31.9125L31.1025 174.794H31.0735L28.4105 181.177H27.2655L24.7205 174.794H24.6905L23.7645 181.177H20.8965L22.7795 170.088Z" fill="white"/>
<path d="M47.7221 175.426C47.7221 179.013 45.1471 181.544 41.5881 181.544C38.0301 181.544 35.4561 179.013 35.4561 175.426C35.4561 172.072 38.3971 169.72 41.5881 169.72C44.7791 169.72 47.7221 172.072 47.7221 175.426ZM38.455 175.44C38.455 177.352 39.8681 178.751 41.5881 178.751C43.3101 178.751 44.7211 177.353 44.7211 175.44C44.7211 173.912 43.3101 172.514 41.5881 172.514C39.8681 172.514 38.455 173.911 38.455 175.44Z" fill="white"/>
<path d="M49.0586 181.177V170.088H53.1776C55.1486 170.088 56.4726 170.852 56.4726 172.97C56.4726 173.97 56.1496 174.78 55.2516 175.235V175.264C56.8386 175.469 57.5156 176.543 57.5156 178.087C57.5156 180.411 55.5316 181.177 53.5006 181.177H49.0586ZM51.9426 174.44H52.2656C53.0306 174.44 53.8246 174.307 53.8246 173.366C53.8246 172.352 52.9276 172.294 52.1476 172.294H51.9416V174.44H51.9426ZM51.9426 178.97H52.3086C53.1636 178.97 54.6036 179.013 54.6036 177.793C54.6036 176.455 53.1766 176.586 52.2356 176.586H51.9416V178.97H51.9426Z" fill="white"/>
<path d="M61.8976 170.085H59.0156V181.176H61.8976V170.085Z" fill="white"/>
<path d="M66.6632 178.735H70.1202V181.177H63.7832V170.088H66.6632V178.735Z" fill="white"/>
<path d="M73.9435 170.085H71.0615V181.176H73.9435V170.085Z" fill="white"/>
<path d="M75.8262 170.088H79.9152C83.0042 170.088 85.5472 172.514 85.5472 175.631C85.5472 178.75 82.9872 181.177 79.9152 181.177H75.8262V170.088ZM78.7092 178.735H79.3562C81.0762 178.735 82.5472 177.794 82.5472 175.631C82.5472 173.647 81.2382 172.528 79.3852 172.528H78.7082V178.735H78.7092Z" fill="white"/>
<path d="M89.7087 179.249L88.9457 181.177H85.8857L90.1508 170.088H93.2978L97.4748 181.177H94.4008L93.6787 179.249H89.7087ZM91.7248 173.514H91.6948L90.5038 177.042H92.9017L91.7248 173.514Z" fill="white"/>
<path d="M98.373 170.088H102.461C105.55 170.088 108.092 172.514 108.092 175.631C108.092 178.75 105.534 181.177 102.461 181.177H98.373V170.088ZM101.254 178.735H101.901C103.621 178.735 105.092 177.794 105.092 175.631C105.092 173.647 103.783 172.528 101.93 172.528H101.253V178.735H101.254Z" fill="white"/>
<path d="M112.315 172.529V174.381H115.563V176.823H112.315V178.735H115.741V181.177H109.431V170.088H115.741V172.529H112.315Z" fill="white"/>
<path d="M132.183 170.088V176.322C132.183 177.749 132.126 179.161 131.021 180.235C130.095 181.147 128.639 181.469 127.344 181.469C126.051 181.469 124.594 181.147 123.669 180.235C122.565 179.161 122.505 177.749 122.505 176.322V170.088H125.389V175.925C125.389 177.367 125.491 178.941 127.344 178.941C129.198 178.941 129.301 177.368 129.301 175.925V170.088H132.183Z" fill="white"/>
<path d="M143.229 181.177H139.641L136.919 176.911H136.891V181.177H134.009V170.088H138.316C140.507 170.088 142.17 171.131 142.17 173.498C142.17 175.028 141.317 176.352 139.744 176.631L143.229 181.177ZM136.891 175.058H137.171C138.11 175.058 139.171 174.882 139.171 173.675C139.171 172.47 138.111 172.293 137.171 172.293H136.891V175.058Z" fill="white"/>
<path d="M144.008 181.177V170.088H148.127C150.098 170.088 151.422 170.852 151.422 172.97C151.422 173.97 151.098 174.78 150.201 175.235V175.264C151.79 175.469 152.465 176.543 152.465 178.087C152.465 180.411 150.479 181.177 148.45 181.177H144.008ZM146.891 174.44H147.214C147.979 174.44 148.773 174.307 148.773 173.366C148.773 172.352 147.874 172.294 147.096 172.294H146.89V174.44H146.891ZM146.891 178.97H147.259C148.111 178.97 149.552 179.013 149.552 177.793C149.552 176.455 148.125 176.586 147.184 176.586H146.89V178.97H146.891Z" fill="white"/>
<path d="M156.789 179.249L156.024 181.177H152.964L157.231 170.088H160.377L164.554 181.177H161.48L160.76 179.249H156.789ZM158.804 173.514H158.773L157.583 177.042H159.98L158.804 173.514Z" fill="white"/>
<path d="M165.452 170.088H168.333L173.614 176.866H173.643V170.088H176.526V181.177H173.643L168.363 174.381H168.333V181.177H165.452V170.088Z" fill="white"/>
<path d="M181.232 179.249L180.467 181.177H177.409L181.674 170.088H184.82L188.998 181.177H185.924L185.204 179.249H181.232ZM183.247 173.514H183.218L182.027 177.042H184.424L183.247 173.514Z" fill="white"/>
</svg>
